<svg width="404" height="91" viewBox="0 0 404 91" fill="none" xmlns="http://www.w3.org/2000/svg">
<path d="M40.3786 78.3553C40.3786 78.0479 40.2984 77.6469 40.1379 77.3394C39.9774 77.032 39.75 76.7914 39.5093 76.5508C38.9609 76.083 38.1852 75.9226 37.0884 75.9226H29.4247V81.0821H37.0884C38.1049 81.0821 38.894 80.9217 39.5093 80.4539C39.75 80.2133 39.9774 79.986 40.1379 79.6652C40.2984 79.3578 40.3786 78.9568 40.3786 78.6494V78.3553ZM42.3314 82.4187C41.3951 83.3544 40.0576 83.9025 38.3457 84.0629L43.6688 90.158V90.6259H39.75L33.9587 84.1297H29.4247V90.6259H26.0542V72.875H37.1687C39.2017 72.875 40.8468 73.423 42.0237 74.3587C43.2007 75.3745 43.7491 76.778 43.7491 78.5023V78.8097C43.8294 79.5182 43.6688 80.1331 43.4415 80.7613C43.1874 81.4029 42.7995 81.9509 42.3314 82.4187Z" fill="white"/>
<path d="M63.9316 86.2548C65.1086 85.2389 65.6569 83.8354 65.6569 81.9507V81.5631C65.6569 79.7586 65.1086 78.2749 63.9316 77.1789C62.6744 76.163 61.0426 75.6952 58.7689 75.6952C56.6557 75.6952 54.8501 76.163 53.6865 77.1789C52.5095 78.2749 51.8809 79.6784 51.8809 81.5631V81.9507C51.8809 83.8221 52.4292 85.2389 53.6865 86.2548C54.8635 87.3509 56.6557 87.8187 58.7689 87.8187C60.949 87.8187 62.6744 87.3375 63.9316 86.2548ZM53.3655 89.8504C51.8809 89.142 50.6236 88.0459 49.6874 86.6424C48.8314 85.2389 48.4302 83.5948 48.4302 81.9507V81.6433C48.4302 79.919 48.818 78.2749 49.6874 76.7912C50.5434 75.3877 51.8809 74.2917 53.3655 73.6635C55.0908 72.955 56.8831 72.5674 58.7689 72.5674C60.6414 72.5674 62.5272 72.955 64.2526 73.6635C65.7372 74.3719 66.9944 75.4679 67.8504 76.7912C68.7064 78.2749 69.1745 79.919 69.1745 81.6433V81.9507C69.1745 83.5948 68.7866 85.2389 67.8504 86.6424C66.9944 88.0459 65.7372 89.142 64.2526 89.8504C62.6877 90.5589 60.8821 90.9465 58.7689 90.9465C56.8831 91.0133 55.0106 90.6257 53.3655 89.8504Z" fill="white"/>
<path d="M78.0958 89.9311C76.8386 89.3029 75.8221 88.287 75.1266 87.0439C74.3375 85.7875 73.9496 84.3038 74.0299 82.8201V72.8887H77.4003V82.9003C77.4003 84.384 77.8685 85.6404 78.8047 86.4959C79.7409 87.3514 80.9982 87.7524 82.7235 87.7524C84.3686 87.7524 85.6927 87.3647 86.6423 86.4959C87.5786 85.6404 87.9665 84.384 87.9665 82.9003V72.8887H91.4038V82.8201C91.4038 84.3038 91.0159 85.7875 90.3071 87.0439C89.5179 88.3004 88.5015 89.3163 87.2576 89.9311C85.773 90.6396 84.2081 90.947 82.6433 90.947C81.065 91.0138 79.5002 90.6262 78.0958 89.9311Z" fill="white"/>
<path d="M110.489 80.534C110.797 80.2935 110.957 79.986 111.118 79.6786C111.278 79.3712 111.359 79.0504 111.359 78.6627V78.4221C111.359 78.0345 111.278 77.7137 111.118 77.4063C110.957 77.0988 110.81 76.7781 110.489 76.5508C109.941 76.083 109.165 75.9226 108.068 75.9226H100.405V81.0821H108.068C108.924 81.1623 109.78 81.0152 110.489 80.534ZM108.135 72.875C110.168 72.875 111.813 73.423 112.99 74.3587C113.539 74.9067 114.007 75.4547 114.314 76.1632C114.622 76.8716 114.783 77.6468 114.702 78.4355V78.6761C114.783 79.4647 114.622 80.24 114.314 80.9484C114.007 81.5766 113.525 82.2049 112.99 82.7529C111.813 83.6886 110.168 84.2366 108.135 84.2366H100.472V90.6526H97.1011V72.9017H108.135V72.875Z" fill="white"/>
<path d="M20.6507 79.2104V79.05C20.6507 77.7935 20.1826 76.6306 19.3935 75.6815C18.4573 74.5855 17.2 73.8102 15.8759 73.4092C14.1506 72.781 12.3583 72.5538 10.633 72.6206C8.68026 72.5404 6.79442 72.928 5.00219 73.7166C3.43734 74.3449 2.1801 75.5212 1.32412 76.9247C0.387877 78.248 0 79.8118 0 81.6163V82.004C0 82.004 0 82.0842 0 82.1644C0 83.8085 0.468126 85.3724 1.32412 86.7759C2.1801 88.1794 3.43732 89.2754 4.92193 89.9037C6.56703 90.6923 8.43951 90.9997 10.633 90.9997C13.2143 90.9997 15.4078 90.6923 17.4408 89.3556C17.521 89.3556 21.1991 87.3239 20.5705 81.2955H8.21214V84.2629H17.521C17.521 84.2629 16.8122 87.3105 11.9705 87.7784C11.5826 87.8586 11.1813 87.8586 10.7935 87.8586C8.37263 87.8586 6.56704 87.3105 5.39005 86.3748C4.13282 85.359 3.51759 83.9555 3.51759 82.0708V81.603C3.51759 79.7985 4.14619 78.3148 5.39005 77.2989C6.71416 76.2831 8.4395 75.735 10.7935 75.735C11.8902 75.735 12.987 75.8954 14.0034 76.2029C14.9397 76.4435 15.7288 76.8311 16.4243 77.4593C16.665 77.6197 16.8924 77.9272 17.0529 78.1678C17.2134 78.4752 17.2936 78.796 17.2936 79.1034V79.2638H20.6641V79.2104H20.6507Z" fill="white"/>
<path d="M75.3537 0H75.0327V53.8007H134.818V41.8376H89.1967V32.922H134.818V20.9455H89.1967V11.9631H134.818V0H75.3537Z" fill="white"/>
<path d="M233.564 0H233.257V53.8007H293.042V41.8376H247.421V32.922H293.042V20.9455H247.421V11.9631H293.042V0H233.564Z" fill="white"/>
<path d="M312.837 0H298.753V53.8007H348.521V41.8376H312.837V0Z" fill="white"/>
<path d="M368.236 41.8376V0H354.152V53.8007H404V41.8376H368.236Z" fill="white"/>
<path d="M204.541 44.7247L191.474 9.30316H176.842L163.775 44.7247L151.336 0H138.884V5.93479L152.192 53.8007H175.745L184.118 26.506L192.571 53.8007H216.124L229.419 5.93479V0H216.98L204.541 44.7247Z" fill="white"/>
<path d="M54.6094 41.8376H14.1639V11.9631H54.6228V41.8376H54.6094ZM45.9291 0H0V53.8007H45.9291C59.1569 53.8007 69.9503 41.7573 69.9503 26.8936C69.9503 12.03 59.1569 0 45.9291 0Z" fill="white"/>
</svg>
