<svg width="24" height="24" viewBox="0 0 24 24" fill="none" xmlns="http://www.w3.org/2000/svg">
<path d="M19.5431 4.47107C18.4756 3.37243 17.0551 2.68603 15.5319 2.53268C14.0086 2.37933 12.4802 2.76886 11.2155 3.63271C9.95088 4.49656 9.03108 5.77936 8.61802 7.25533C8.20496 8.73131 8.32511 10.3059 8.95734 11.7019L2.5 18.179V21.5H5.86393L5.54636 19.5098L7.51061 19.8395L9.18081 18.179L8.86324 16.1888L10.8393 16.5067L12.3095 15.0347C13.7038 15.6677 15.2764 15.788 16.7506 15.3744C18.2247 14.9608 19.5059 14.0399 20.3687 12.7737C21.2315 11.5074 21.6205 9.97708 21.4674 8.45195C21.3142 6.92681 20.6286 5.50464 19.5314 4.43574L19.5431 4.47107Z" stroke="#506050" stroke-width="1.5" stroke-linecap="round" stroke-linejoin="round"/>
<path d="M16.9909 10.2299C16.6754 10.547 16.273 10.7632 15.8347 10.8512C15.3964 10.9392 14.9419 10.8949 14.5287 10.724C14.1156 10.5531 13.7623 10.2633 13.5138 9.89127C13.2653 9.51924 13.1326 9.08173 13.1326 8.63415C13.1326 8.18657 13.2653 7.74906 13.5138 7.37703C13.7623 7.00501 14.1156 6.7152 14.5287 6.54432C14.9419 6.37344 15.3964 6.32918 15.8347 6.41714C16.273 6.5051 16.6754 6.72132 16.9909 7.03842C17.4096 7.46371 17.6444 8.03693 17.6444 8.63415C17.6444 9.23137 17.4096 9.80459 16.9909 10.2299Z" stroke="#506050" stroke-width="1.5" stroke-linecap="round" stroke-linejoin="round"/>
</svg>
