<svg width="90" height="4" viewBox="0 0 90 4" fill="none" xmlns="http://www.w3.org/2000/svg">
<path d="M5.00851 0.0554784H5.69539L4.44755 3.93897H3.86371L2.85056 1.43135L1.8603 3.93897H1.27645L0 0.0554784H0.698329L1.60272 2.92372L2.72463 0.110957H2.97076L4.12129 2.92372L5.00851 0.0554784Z" fill="#506050"/>
<path d="M7.09321 3.33426H8.82758V3.93897H6.43495V0.0554784H8.76462V0.654646H7.09321V1.66435H8.61579V2.25243H7.09321V3.33426Z" fill="#506050"/>
<path d="M10.3883 3.34535H12.054V3.93897H9.73005V0.0554784H10.3883V3.34535Z" fill="#506050"/>
<path d="M13.4542 3.34535H15.1199V3.93897H12.796V0.0554784H13.4542V3.34535Z" fill="#506050"/>
<path d="M18.4949 0.0554784H19.1418V3.93897H18.5865L16.5087 1.16505V3.93897H15.8619V0.0554784H16.4572L18.4949 2.78502V0.0554784Z" fill="#506050"/>
<path d="M20.9332 3.33426H22.6676V3.93897H20.275V0.0554784H22.6046V0.654646H20.9332V1.66435H22.4558V2.25243H20.9332V3.33426Z" fill="#506050"/>
<path d="M24.8236 4C24.5222 4 24.257 3.94822 24.028 3.84466C23.8029 3.7411 23.6273 3.59316 23.5014 3.40083C23.3755 3.20481 23.3125 2.97735 23.3125 2.71845H23.9765C23.9765 2.92557 24.0547 3.09015 24.2112 3.21221C24.3714 3.33056 24.5737 3.38974 24.8179 3.38974C25.0392 3.38974 25.2262 3.33796 25.3789 3.2344C25.5315 3.12714 25.6078 2.98844 25.6078 2.81831C25.6078 2.75543 25.5964 2.6981 25.5735 2.64632C25.5544 2.59454 25.5201 2.55016 25.4704 2.51318C25.4247 2.47619 25.3789 2.44475 25.3331 2.41886C25.2911 2.38927 25.2262 2.36153 25.1385 2.33564C25.0545 2.30976 24.9858 2.29126 24.9324 2.28017C24.879 2.26537 24.7988 2.24503 24.692 2.21914C24.5737 2.19325 24.484 2.17291 24.423 2.15811C24.3619 2.13962 24.276 2.11373 24.1654 2.08044C24.0585 2.04346 23.9746 2.00832 23.9135 1.97503C23.8563 1.94175 23.7876 1.89736 23.7075 1.84189C23.6273 1.78271 23.5663 1.72168 23.5243 1.65881C23.4861 1.59223 23.4518 1.51271 23.4213 1.42025C23.3907 1.32779 23.3755 1.22423 23.3755 1.10957C23.3755 0.761905 23.5014 0.49006 23.7532 0.294036C24.0089 0.0980121 24.3505 0 24.7778 0C25.2129 0 25.5525 0.107258 25.7967 0.321775C26.0409 0.532594 26.1631 0.821082 26.1631 1.18724H25.5105C25.5105 1.00231 25.4399 0.858068 25.2987 0.754508C25.1614 0.647249 24.9839 0.59362 24.7664 0.59362C24.5565 0.59362 24.381 0.638003 24.2398 0.726768C24.1024 0.811835 24.0337 0.932039 24.0337 1.08738C24.0337 1.15395 24.0509 1.21498 24.0852 1.27046C24.1196 1.32594 24.1596 1.37217 24.2054 1.40915C24.2512 1.44244 24.3199 1.47573 24.4115 1.50902C24.5031 1.5423 24.5794 1.56819 24.6405 1.58669C24.7053 1.60148 24.7988 1.62367 24.9209 1.65326C25.0163 1.67545 25.0869 1.69209 25.1327 1.70319C25.1823 1.71429 25.2529 1.73463 25.3445 1.76422C25.4361 1.79011 25.5067 1.81415 25.5563 1.83634C25.6059 1.85483 25.6689 1.88257 25.7452 1.91956C25.8215 1.95654 25.8807 1.99353 25.9226 2.03051C25.9646 2.0675 26.0104 2.11373 26.06 2.16921C26.1134 2.22469 26.1535 2.28386 26.1802 2.34674C26.2069 2.40592 26.2298 2.47619 26.2489 2.55756C26.268 2.63523 26.2775 2.71845 26.2775 2.80721C26.2775 3.18447 26.1402 3.4785 25.8654 3.68932C25.5907 3.89644 25.2434 4 24.8236 4Z" fill="#506050"/>
<path d="M28.4094 4C28.1079 4 27.8427 3.94822 27.6138 3.84466C27.3886 3.7411 27.2131 3.59316 27.0872 3.40083C26.9612 3.20481 26.8983 2.97735 26.8983 2.71845H27.5623C27.5623 2.92557 27.6405 3.09015 27.7969 3.21221C27.9572 3.33056 28.1595 3.38974 28.4037 3.38974C28.625 3.38974 28.812 3.33796 28.9646 3.2344C29.1173 3.12714 29.1936 2.98844 29.1936 2.81831C29.1936 2.75543 29.1822 2.6981 29.1593 2.64632C29.1402 2.59454 29.1058 2.55016 29.0562 2.51318C29.0104 2.47619 28.9646 2.44475 28.9188 2.41886C28.8769 2.38927 28.812 2.36153 28.7242 2.33564C28.6403 2.30976 28.5716 2.29126 28.5182 2.28017C28.4647 2.26537 28.3846 2.24503 28.2778 2.21914C28.1595 2.19325 28.0698 2.17291 28.0087 2.15811C27.9477 2.13962 27.8618 2.11373 27.7512 2.08044C27.6443 2.04346 27.5604 2.00832 27.4993 1.97503C27.4421 1.94175 27.3734 1.89736 27.2932 1.84189C27.2131 1.78271 27.152 1.72168 27.1101 1.65881C27.0719 1.59223 27.0376 1.51271 27.007 1.42025C26.9765 1.32779 26.9612 1.22423 26.9612 1.10957C26.9612 0.761905 27.0872 0.49006 27.339 0.294036C27.5947 0.0980121 27.9362 0 28.3636 0C28.7986 0 29.1383 0.107258 29.3825 0.321775C29.6267 0.532594 29.7488 0.821082 29.7488 1.18724H29.0963C29.0963 1.00231 29.0257 0.858068 28.8845 0.754508C28.7471 0.647249 28.5697 0.59362 28.3522 0.59362C28.1423 0.59362 27.9668 0.638003 27.8256 0.726768C27.6882 0.811835 27.6195 0.932039 27.6195 1.08738C27.6195 1.15395 27.6367 1.21498 27.671 1.27046C27.7054 1.32594 27.7454 1.37217 27.7912 1.40915C27.837 1.44244 27.9057 1.47573 27.9973 1.50902C28.0889 1.5423 28.1652 1.56819 28.2262 1.58669C28.2911 1.60148 28.3846 1.62367 28.5067 1.65326C28.6021 1.67545 28.6727 1.69209 28.7185 1.70319C28.7681 1.71429 28.8387 1.73463 28.9303 1.76422C29.0219 1.79011 29.0925 1.81415 29.1421 1.83634C29.1917 1.85483 29.2547 1.88257 29.331 1.91956C29.4073 1.95654 29.4664 1.99353 29.5084 2.03051C29.5504 2.0675 29.5962 2.11373 29.6458 2.16921C29.6992 2.22469 29.7393 2.28386 29.766 2.34674C29.7927 2.40592 29.8156 2.47619 29.8347 2.55756C29.8538 2.63523 29.8633 2.71845 29.8633 2.80721C29.8633 3.18447 29.7259 3.4785 29.4512 3.68932C29.1764 3.89644 28.8292 4 28.4094 4Z" fill="#506050"/>
<path d="M30.61 2.68516V2.08599H32.4474V2.68516H30.61Z" fill="#506050"/>
<path d="M35.8254 3.93897L34.5718 2.23578H34.1025V3.93897H33.4442V0.0554784H34.1025V1.64216H34.5661L35.7109 0.0554784H36.518L35.15 1.93065L36.6439 3.93897H35.8254Z" fill="#506050"/>
<path d="M39.5605 1.91401C39.736 1.99908 39.8734 2.12483 39.9726 2.29126C40.0757 2.454 40.1272 2.64078 40.1272 2.85159C40.1272 3.15488 40.007 3.41193 39.7666 3.62275C39.53 3.83356 39.2399 3.93897 38.8965 3.93897H37.248V0.0554784H38.8622C39.198 0.0554784 39.4746 0.151641 39.6921 0.343967C39.9135 0.532594 40.0241 0.769302 40.0241 1.05409C40.0241 1.22423 39.9822 1.38881 39.8982 1.54785C39.8143 1.70319 39.7017 1.82524 39.5605 1.91401ZM39.3716 1.1484C39.3716 1.00046 39.3182 0.880259 39.2113 0.787795C39.1083 0.691632 38.9786 0.643551 38.8221 0.643551H37.8948V1.65326H38.8221C38.9824 1.65326 39.114 1.60518 39.2171 1.50902C39.3201 1.41285 39.3716 1.29265 39.3716 1.1484ZM38.8564 3.32871C39.032 3.32871 39.1751 3.27693 39.2857 3.17337C39.4002 3.06981 39.4575 2.93851 39.4575 2.77947C39.4575 2.62043 39.4002 2.48914 39.2857 2.38558C39.1751 2.28202 39.032 2.23024 38.8564 2.23024H37.8948V3.32871H38.8564Z" fill="#506050"/>
<path d="M43.7153 3.93897L43.3662 3.0957H41.5803L41.2368 3.93897H40.5385L42.1527 0.0554784H42.7709L44.4251 3.93897H43.7153ZM42.4675 0.887656L41.8092 2.52427H43.1372L42.4675 0.887656Z" fill="#506050"/>
<path d="M46.612 0.0554784C46.8677 0.0554784 47.0985 0.110957 47.3046 0.221914C47.5145 0.332871 47.6786 0.486362 47.7969 0.682386C47.9151 0.87841 47.9743 1.09662 47.9743 1.33703C47.9743 1.70319 47.8446 2.00832 47.5851 2.25243C47.3256 2.49653 47.0012 2.61859 46.612 2.61859H45.7877V3.93897H45.1295V0.0554784H46.612ZM46.5776 2.01387C46.6845 2.01387 46.7818 1.99723 46.8696 1.96394C46.9611 1.93065 47.0394 1.88442 47.1042 1.82524C47.1691 1.76607 47.2187 1.69394 47.2531 1.60888C47.2912 1.52381 47.3103 1.43319 47.3103 1.33703C47.3103 1.20758 47.2779 1.09293 47.213 0.993065C47.1519 0.889505 47.0661 0.808137 46.9554 0.74896C46.8448 0.689783 46.7188 0.660194 46.5776 0.660194H45.7877V2.01387H46.5776Z" fill="#506050"/>
<path d="M51.3871 0.0554784V0.649098H50.208V3.93897H49.5555V0.649098H48.3763V0.0554784H51.3871Z" fill="#506050"/>
<path d="M54.495 3.93897L54.1458 3.0957H52.36L52.0165 3.93897H51.3182L52.9324 0.0554784H53.5505L55.2048 3.93897H54.495ZM53.2472 0.887656L52.5889 2.52427H53.9169L53.2472 0.887656Z" fill="#506050"/>
<path d="M56.6018 0.0554784H59.1604V3.93897H58.5021V0.649098H57.1913L57.0024 2.62968C56.9147 3.50624 56.4835 3.94452 55.7088 3.94452H55.5199V3.31761H55.7088C56.0828 3.31761 56.2908 3.0957 56.3327 2.65187L56.6018 0.0554784Z" fill="#506050"/>
<path d="M64.1634 1.91401C64.339 1.99908 64.4764 2.12483 64.5756 2.29126C64.6786 2.454 64.7301 2.64078 64.7301 2.85159C64.7301 3.15488 64.6099 3.41193 64.3695 3.62275C64.1329 3.83356 63.8429 3.93897 63.4995 3.93897H61.8509V0.0554784H63.4651C63.8009 0.0554784 64.0776 0.151641 64.2951 0.343967C64.5164 0.532594 64.6271 0.769302 64.6271 1.05409C64.6271 1.22423 64.5851 1.38881 64.5012 1.54785C64.4172 1.70319 64.3046 1.82524 64.1634 1.91401ZM63.9745 1.1484C63.9745 1.00046 63.9211 0.880259 63.8143 0.787795C63.7112 0.691632 63.5815 0.643551 63.425 0.643551H62.4978V1.65326H63.425C63.5853 1.65326 63.717 1.60518 63.82 1.50902C63.923 1.41285 63.9745 1.29265 63.9745 1.1484ZM63.4594 3.32871C63.6349 3.32871 63.778 3.27693 63.8887 3.17337C64.0032 3.06981 64.0604 2.93851 64.0604 2.77947C64.0604 2.62043 64.0032 2.48914 63.8887 2.38558C63.778 2.28202 63.6349 2.23024 63.4594 2.23024H62.4978V3.32871H63.4594Z" fill="#506050"/>
<path d="M69.9476 3.93897L69.5984 3.0957H67.8125L67.4691 3.93897H66.7708L68.3849 0.0554784H69.0031L70.6574 3.93897H69.9476ZM68.6998 0.887656L68.0415 2.52427H69.3695L68.6998 0.887656Z" fill="#506050"/>
<path d="M74.3153 3.93897H73.5769L72.6038 2.42441L71.6308 3.93897H70.8924L72.2032 1.90291L70.984 0.0554784H71.7224L72.6038 1.42025L73.4796 0.0554784H74.2123L73.0045 1.9251L74.3153 3.93897Z" fill="#506050"/>
<path d="M77.2593 0.0554784H77.9577L76.7614 2.7129C76.5515 3.19001 76.334 3.51549 76.1088 3.68932C75.8875 3.86315 75.5784 3.95007 75.1815 3.95007H75.0098V3.35645H75.2445C75.4467 3.35645 75.6013 3.32131 75.7081 3.25104C75.815 3.17707 75.9237 3.03282 76.0344 2.81831L74.5175 0.0554784H75.2674L76.3721 2.08044L77.2593 0.0554784Z" fill="#506050"/>
<path d="M81.1015 0.0554784H81.7598V3.93897H81.1015V2.24688H79.2698V3.93897H78.6115V0.0554784H79.2698V1.64216H81.1015V0.0554784Z" fill="#506050"/>
<path d="M85.6323 3.93897L85.2831 3.0957H83.4972L83.1538 3.93897H82.4554L84.0696 0.0554784H84.6878L86.3421 3.93897H85.6323ZM84.3844 0.887656L83.7262 2.52427H85.0542L84.3844 0.887656Z" fill="#506050"/>
<path d="M90 3.93897H89.2616L88.2885 2.42441L87.3154 3.93897H86.577L87.8878 1.90291L86.6686 0.0554784H87.407L88.2885 1.42025L89.1643 0.0554784H89.897L88.6892 1.9251L90 3.93897Z" fill="#506050"/>
</svg>
