<svg width="40" height="40" viewBox="0 0 40 40" fill="none" xmlns="http://www.w3.org/2000/svg">
<path d="M20.5312 28.2174C20.2318 28.0802 19.9324 27.9429 19.633 27.7808C18.1661 26.9525 16.8188 25.9284 15.6282 24.7367C14.0844 23.2837 12.8164 21.5635 11.8854 19.6589C11.3866 18.6359 11.0499 17.5416 10.8873 16.4152C10.666 15.2774 10.792 14.0993 11.2491 13.0342C11.5308 12.5765 11.8705 12.1572 12.2597 11.7866C12.4174 11.6099 12.6093 11.4668 12.8236 11.3661C13.038 11.2653 13.2705 11.2089 13.5073 11.2002C14 11.2739 14.4462 11.5327 14.7549 11.9238C15.4286 12.6724 16.1522 13.3461 16.8633 14.0572C17.1433 14.2974 17.318 14.6378 17.3499 15.0054C17.3379 15.3146 17.2188 15.6101 17.013 15.8413C16.776 16.1407 16.489 16.4151 16.2146 16.7021C16.0489 16.8616 15.9222 17.0571 15.8443 17.2735C15.7664 17.4898 15.7394 17.7212 15.7654 17.9497C15.9368 18.4847 16.2317 18.9719 16.6263 19.372C17.1003 20.0207 17.5744 20.6195 18.1109 21.2558C19.0748 22.3688 20.2174 23.3132 21.4918 24.0504C21.668 24.1835 21.8763 24.2675 22.0955 24.2939C22.3147 24.3201 22.5369 24.2878 22.7395 24.2001C23.1631 23.9631 23.5396 23.6502 23.8498 23.277C24.1182 22.95 24.5028 22.7398 24.9228 22.6905C25.2965 22.7095 25.6488 22.8702 25.9084 23.1397C26.2452 23.4266 26.5322 23.7635 26.844 24.0754C27.156 24.3872 27.4055 24.6119 27.6675 24.8988C27.9812 25.1751 28.2771 25.4709 28.5532 25.7846C28.7674 26.0616 28.8699 26.4089 28.8402 26.7577C28.7291 27.1748 28.4889 27.5459 28.1541 27.8181C27.6832 28.308 27.1109 28.6891 26.4773 28.9348C25.8438 29.1804 25.1642 29.2848 24.4861 29.2405C23.1133 29.1634 21.7692 28.8158 20.5312 28.2174Z" stroke="#506050" stroke-width="1.5" stroke-miterlimit="10" stroke-linecap="round"/>
<path d="M25.7514 19.1977C25.7514 17.856 25.2185 16.5692 24.2697 15.6204C23.321 14.6717 22.0342 14.1387 20.6924 14.1387" stroke="#506050" stroke-width="1.5" stroke-miterlimit="10" stroke-linecap="round"/>
<path d="M29.2189 18.8444C29.2189 16.6977 28.3661 14.6388 26.8481 13.1208C25.3301 11.6028 23.2712 10.75 21.1245 10.75" stroke="#506050" stroke-width="1.5" stroke-miterlimit="10" stroke-linecap="round"/>
</svg>
