<svg width="151" height="46" viewBox="0 0 151 46" fill="none" xmlns="http://www.w3.org/2000/svg">
<g opacity="0.5">
<path d="M131.618 12.965L133.118 10.0938L134.327 12.3781L132.972 12.7467L131.618 12.965Z" fill="#506050"/>
<path d="M130.807 14.6576H132.972L135.026 13.8477L135.245 14.2551V14.9535L133.026 15.5403L131.943 15.7974L130.807 16.0544L129.889 16.3503L130.807 14.6576Z" fill="#506050"/>
<path d="M129.268 17.4897L133.594 17.7468L135.245 17.4897L136.531 17.1211L136.784 17.4363L137.187 18.2609V18.5955L128.787 18.8865L129.268 17.4897Z" fill="#506050"/>
<path d="M127.393 21.3555L132.312 21.1324L133.851 20.8366L135.905 20.3225L137.522 19.9199H138.143L138.546 20.9142V21.3555L135.026 21.9036L132.385 22.2722L129.413 22.4565H127.029L127.393 21.3555Z" fill="#506050"/>
<path d="M124.679 27.0545L125.306 25.9148L126.403 25.2891L127.908 24.775L129.67 24.3725L132.054 24.1882H135.244L138.692 23.8535H140.012L140.381 24.6295L140.566 24.9205L136.604 25.1436H133.56L131.098 25.2891L129.229 25.6238L127.32 26.1718L125.82 26.7247L124.679 27.0545Z" fill="#506050"/>
<path d="M124.019 30.9922L126.218 29.5953L128.199 28.7466L130.768 27.6068L132.972 26.9084L134.73 26.5059H136.638L139.095 27.0588L141.26 27.2431L141.92 27.6117L142.066 28.7514L141.848 28.9357L138.182 27.9415L135.652 27.5001L133.196 27.5389L130.04 28.7514C130.04 28.7514 127.029 30.4829 127.029 30.5168C127.029 30.5508 125.233 31.6566 125.233 31.6566L124.204 32.7964H124.019V30.9922Z" fill="#506050"/>
<path d="M124.864 35.7406C124.975 35.7406 125.709 34.2662 125.966 34.1935C126.223 34.1207 127.214 32.9809 127.214 32.9809L128.792 31.6569L130.481 30.4783L132.278 29.649L134.331 29.1882L136.934 29.0039L139.905 29.261L141.114 29.649L142.323 30.2552V31.8024L140.561 30.6238L139.022 30.1437L137.186 30.0321H134.987L132.346 30.4007C132.346 30.4007 131.098 31.1379 130.879 31.2107C130.661 31.2834 128.165 33.0488 128.165 33.0488C128.165 33.0488 126.845 34.3729 126.845 34.4845C126.845 34.596 125.854 36.6573 125.854 36.6573L125.597 36.8804L124.679 35.8861L124.864 35.7406Z" fill="#506050"/>
<path d="M127.394 38.4228L128.02 37.3558L128.641 36.182L129.044 34.5961L129.632 33.6067L130.768 32.7967L132.623 31.9625L134.327 31.4727H136.235L138.143 31.8025L140.051 31.9625L141.702 32.205L142.324 32.3893V33.3836L141.333 33.2381L137.556 32.7967H135.614H133.502L131.618 33.8637L130.108 34.7804L129.705 35.3333L129.632 36.7301L128.787 38.3161L128.311 39.3055L127.69 38.9029L127.394 38.4228Z" fill="#506050"/>
<path d="M130.515 41.1828L129.743 40.8918V40.2661L130.292 38.8305L131.248 36.8808L133.045 35.1154L134.657 34.4897L135.832 34.1211H137.847L139.352 34.674L141.299 35.3918L141.478 35.7022V36.3618L139.794 35.775L137.628 34.9311L135.977 34.8922L134.472 35.5907L132.972 36.7304L131.981 38.0593L130.695 39.3058L130.515 41.1828Z" fill="#506050"/>
<path d="M132.239 44.6751V40.2276V39.3061L133.045 38.1663L134.327 37.172L135.609 36.4736H137.187H138.546L139.318 36.8762L140.197 37.463C140.197 37.463 139.61 37.8316 139.537 38.0159C139.464 38.2002 138.216 37.5018 138.216 37.5018L136.784 37.206L135.429 37.3903L134.473 38.0887L133.502 39.5243V40.8144L133.045 43.8312L133.23 44.6751H132.239Z" fill="#506050"/>
<path d="M134.327 42.5453L135.244 41.716L135.613 40.4841L136.565 39.3055L137.701 39.16L138.25 39.3055L138.949 38.4956C138.949 38.4956 138.327 38.5344 137.997 38.4956C137.667 38.4616 136.055 38.4956 136.055 38.4956L134.696 39.7857L134.327 41.3668V42.5453Z" fill="#506050"/>
</g>
<path d="M2.18426 45.1689H0L25.3082 0.821338H25.949L51.3106 45.1689H44.0443L23.8132 9.67521H22.425L2.18426 45.1689ZM67.7313 13.4837H92.4183L91.3504 15.3855H67.7313V43.2622H102.189L101.126 45.164H61.4649V0.816459H99.6846L98.6216 2.70358H67.7313V13.4837ZM151 41.0573C148.495 42.6902 145.777 43.932 142.85 44.7582C139.919 45.5844 137.006 46 134.074 46C130.949 46 127.803 45.516 124.624 44.5431C121.445 43.5751 118.605 42.1377 116.081 40.2311C113.542 38.3293 111.48 35.9386 109.863 33.0639C108.247 30.1892 107.446 26.85 107.446 23.0611C107.446 19.2184 108.247 15.8402 109.863 12.9508C111.48 10.0614 113.542 7.63652 116.081 5.71027C118.605 3.78892 121.445 2.37113 124.624 1.41779C127.803 0.464446 130.949 0 134.074 0C137.006 0 139.919 0.41556 142.85 1.22223C145.782 2.04846 148.5 3.28537 151 4.93783L149.189 8.16941C147.432 6.10139 145.302 4.44894 142.797 3.24626C140.292 2.04358 137.38 1.46668 134.079 1.50091C130.827 1.55469 127.954 2.14624 125.449 3.3147C122.944 4.48315 120.833 6.0085 119.144 7.92986C117.455 9.85121 116.159 12.0952 115.29 14.6472C114.421 17.2139 113.974 19.8931 113.974 22.6749C113.974 25.5496 114.416 28.2972 115.29 30.903C116.159 33.5234 117.455 35.8261 119.178 37.8159C120.882 39.8106 122.998 41.3702 125.502 42.5386C128.007 43.7071 130.9 44.2791 134.152 44.2791C137.492 44.2253 140.404 43.6338 142.889 42.4995C145.374 41.3653 147.471 39.8057 149.194 37.811L151 41.0573Z" fill="#506050"/>
</svg>
