<svg width="214" height="48" viewBox="0 0 214 48" fill="none" xmlns="http://www.w3.org/2000/svg">
<path d="M21.3885 41.3302C21.3885 41.168 21.346 40.9565 21.261 40.7943C21.1759 40.6322 21.0555 40.5053 20.928 40.3783C20.6375 40.1316 20.2266 40.047 19.6456 40.047H15.5861V42.7685H19.6456C20.1841 42.7685 20.6021 42.6839 20.928 42.4371C21.0555 42.3102 21.1759 42.1903 21.261 42.0211C21.346 41.859 21.3885 41.6474 21.3885 41.4853V41.3302ZM22.4228 43.4735C21.9269 43.9671 21.2184 44.2561 20.3116 44.3407L23.1313 47.5558V47.8026H21.0555L17.9878 44.376H15.5861V47.8026H13.8008V38.4395H19.6882C20.765 38.4395 21.6364 38.7285 22.2599 39.2221C22.8833 39.7579 23.1738 40.4982 23.1738 41.4077V41.5699C23.2163 41.9435 23.1313 42.2679 23.0109 42.5993C22.8763 42.9377 22.6708 43.2268 22.4228 43.4735Z" fill="white"/>
<path d="M33.865 45.4971C34.4884 44.9612 34.7789 44.2209 34.7789 43.2268V43.0224C34.7789 42.0705 34.4884 41.2879 33.865 40.7098C33.199 40.1739 32.3347 39.9272 31.1303 39.9272C30.0109 39.9272 29.0545 40.1739 28.4381 40.7098C27.8146 41.2879 27.4816 42.0282 27.4816 43.0224V43.2268C27.4816 44.2139 27.7721 44.9612 28.4381 45.4971C29.0615 46.0752 30.0109 46.322 31.1303 46.322C32.2851 46.322 33.199 46.0682 33.865 45.4971ZM28.268 47.3937C27.4816 47.02 26.8157 46.4419 26.3198 45.7016C25.8663 44.9612 25.6538 44.094 25.6538 43.2268V43.0647C25.6538 42.1551 25.8593 41.2879 26.3198 40.5053C26.7732 39.765 27.4816 39.1869 28.268 38.8555C29.182 38.4818 30.1313 38.2773 31.1303 38.2773C32.1221 38.2773 33.1211 38.4818 34.035 38.8555C34.8214 39.2292 35.4873 39.8073 35.9408 40.5053C36.3942 41.2879 36.6422 42.1551 36.6422 43.0647V43.2268C36.6422 44.094 36.4367 44.9612 35.9408 45.7016C35.4873 46.4419 34.8214 47.02 34.035 47.3937C33.2061 47.7674 32.2496 47.9718 31.1303 47.9718C30.1313 48.0071 29.1395 47.8026 28.268 47.3937Z" fill="white"/>
<path d="M41.3672 47.4357C40.7013 47.1043 40.1628 46.5685 39.7944 45.9128C39.3764 45.25 39.171 44.4674 39.2135 43.6848V38.4463H40.9988V43.7271C40.9988 44.5098 41.2468 45.1725 41.7427 45.6237C42.2387 46.075 42.9046 46.2865 43.8185 46.2865C44.69 46.2865 45.3913 46.082 45.8944 45.6237C46.3903 45.1725 46.5957 44.5098 46.5957 43.7271V38.4463H48.4165V43.6848C48.4165 44.4674 48.211 45.25 47.8356 45.9128C47.4176 46.5755 46.8791 47.1114 46.2203 47.4357C45.4339 47.8094 44.6049 47.9716 43.776 47.9716C42.94 48.0068 42.1111 47.8023 41.3672 47.4357Z" fill="white"/>
<path d="M58.5268 42.4794C58.6898 42.3525 58.7748 42.1903 58.8598 42.0282C58.9448 41.866 58.9873 41.6968 58.9873 41.4923V41.3654C58.9873 41.161 58.9448 40.9917 58.8598 40.8296C58.7748 40.6674 58.6969 40.4982 58.5268 40.3783C58.2364 40.1316 57.8254 40.047 57.2445 40.047H53.185V42.7685H57.2445C57.6979 42.8108 58.1513 42.7332 58.5268 42.4794ZM57.2799 38.4395C58.3568 38.4395 59.2282 38.7285 59.8517 39.2221C60.1421 39.5111 60.3901 39.8002 60.553 40.1739C60.716 40.5476 60.801 40.9565 60.7585 41.3725V41.4994C60.801 41.9154 60.716 42.3243 60.553 42.698C60.3901 43.0293 60.135 43.3607 59.8517 43.6498C59.2282 44.1433 58.3568 44.4324 57.2799 44.4324H53.2204V47.8166H51.4351V38.4535H57.2799V38.4395Z" fill="white"/>
<path d="M10.9388 41.7816V41.697C10.9388 41.0343 10.6908 40.4209 10.2728 39.9203C9.77687 39.3421 9.1109 38.9332 8.40952 38.7217C7.49559 38.3903 6.54625 38.2705 5.63232 38.3057C4.59796 38.2634 3.59902 38.4679 2.64968 38.8839C1.82077 39.2152 1.15481 39.8357 0.701388 40.576C0.20546 41.274 0 42.0989 0 43.0507V43.2552C0 43.2552 0 43.2975 0 43.3398C0 44.207 0.247968 45.0319 0.701388 45.7722C1.15481 46.5125 1.82076 47.0907 2.60716 47.4221C3.47858 47.838 4.47043 48.0002 5.63232 48.0002C6.99967 48.0002 8.16155 47.838 9.23842 47.133C9.28093 47.133 11.2292 46.0613 10.8962 42.8815H4.35V44.4467H9.28094C9.28094 44.4467 8.90545 46.0543 6.34079 46.301C6.13533 46.3433 5.92279 46.3433 5.71734 46.3433C4.43501 46.3433 3.47858 46.0542 2.85513 45.5607C2.18917 45.0249 1.86328 44.2846 1.86328 43.2904V43.0437C1.86328 42.0919 2.19625 41.3093 2.85513 40.7734C3.55651 40.2376 4.47043 39.9485 5.71734 39.9485C6.29828 39.9485 6.87923 40.0331 7.41767 40.1953C7.91359 40.3222 8.33159 40.5266 8.69999 40.858C8.82752 40.9426 8.94796 41.1048 9.03297 41.2317C9.11799 41.3939 9.16049 41.5631 9.16049 41.7252V41.8098H10.9458V41.7816H10.9388Z" fill="white"/>
<path d="M39.9151 0H39.7451V28.3784H71.4137V22.0682H47.2478V17.3655H71.4137V11.0482H47.2478V6.31023H71.4137V0H39.9151Z" fill="white"/>
<path d="M123.72 0H123.557V28.3784H155.226V22.0682H131.06V17.3655H155.226V11.0482H131.06V6.31023H155.226V0H123.72Z" fill="white"/>
<path d="M165.711 0H158.25V28.3784H184.613V22.0682H165.711V0Z" fill="white"/>
<path d="M195.055 22.0682V0H187.595V28.3784H214V22.0682H195.055Z" fill="white"/>
<path d="M108.346 23.5911L101.424 4.90716H93.6737L86.752 23.5911L80.1632 0H73.5674V3.13044L80.6166 28.3784H93.0928L97.5278 13.9812L102.005 28.3784H114.481L121.524 3.13044V0H114.935L108.346 23.5911Z" fill="white"/>
<path d="M28.9268 22.0682H7.50268V6.31023H28.9339V22.0682H28.9268ZM24.3288 0H0V28.3784H24.3288C31.3356 28.3784 37.0529 22.0258 37.0529 14.1857C37.0529 6.34547 31.3356 0 24.3288 0Z" fill="white"/>
</svg>
