<svg width="205" height="375" viewBox="0 0 205 375" fill="none" xmlns="http://www.w3.org/2000/svg">
<mask id="mask0_205_10918" style="mask-type:alpha" maskUnits="userSpaceOnUse" x="0" y="0" width="205" height="375">
<path d="M92.6695 346.377C-68.0166 258.111 10.442 175.195 101.829 0C198.564 185.448 272.565 259.448 103.166 355.739V374.016L92.0212 370.895L92.6695 346.377Z" fill="#5B6856"/>
</mask>
<g mask="url(#mask0_205_10918)">
<path d="M92.6695 346.377C-68.0166 258.111 10.442 175.195 101.829 0C198.564 185.448 272.565 259.448 103.166 355.739V374.016L92.0212 370.895L92.6695 346.377Z" fill="#5B6856"/>
<g opacity="0.5">
<path d="M85.0679 24.6144L101.864 -7.56445L115.399 18.0373L100.233 22.1685L85.0679 24.6144Z" fill="#808A7C"/>
<path d="M75.9901 43.5834H100.233L123.226 34.5059L125.672 39.0718V46.8991L100.831 53.4762L88.7094 56.357L75.9901 59.2379L65.7168 62.5538L75.9901 43.5834Z" fill="#808A7C"/>
<path d="M58.7588 75.3299L107.19 78.2107L125.671 75.3299L140.076 71.1987L142.902 74.7319L147.414 83.9725V87.7231L53.3774 90.9844L58.7588 75.3299Z" fill="#808A7C"/>
<path d="M37.7774 118.65L92.8404 116.15L110.071 112.834L133.064 107.072L151.165 102.561H158.122L162.634 113.704V118.65L123.226 124.792L93.6557 128.923L60.3897 130.989H33.7007L37.7774 118.65Z" fill="#808A7C"/>
<path d="M7.39209 182.515L14.4041 169.742L26.6887 162.73L43.539 156.968L63.2704 152.456L89.9594 150.391H125.672L164.265 146.64H179.05L183.18 155.337L185.246 158.598L140.891 161.099H106.81L79.2512 162.73L58.324 166.48L36.962 172.622L20.1659 178.819L7.39209 182.515Z" fill="#808A7C"/>
<path d="M0 226.655L24.6234 211L46.8007 201.488L75.5553 188.714L100.233 180.887L119.91 176.375H141.272L168.776 182.572L193.019 184.638L200.412 188.769L202.042 201.543L199.596 203.608L158.557 192.465L130.238 187.518L102.733 187.953L67.4018 201.543C67.4018 201.543 33.7008 220.948 33.7008 221.328C33.7008 221.709 13.5891 234.102 13.5891 234.102L2.0654 246.876H0V226.655Z" fill="#808A7C"/>
<path d="M9.45766 279.872C10.7079 279.872 18.9156 263.348 21.7965 262.532C24.6774 261.717 35.7661 248.943 35.7661 248.943L53.4319 234.104L72.348 220.895L92.4597 211.6L115.453 206.436L144.587 204.371L177.854 207.252L191.388 211.6L204.923 218.395V235.734L185.192 222.526L167.961 217.145L147.414 215.894H122.791L93.2208 220.026C93.2208 220.026 79.2511 228.288 76.8051 229.103C74.359 229.918 46.4199 249.704 46.4199 249.704C46.4199 249.704 31.635 264.543 31.635 265.793C31.635 267.044 20.5464 290.145 20.5464 290.145L17.6655 292.645L7.39209 281.503L9.45766 279.872Z" fill="#808A7C"/>
<path d="M37.7773 309.933L44.7894 297.975L51.747 284.82L56.2585 267.046L62.8357 255.957L75.5551 246.88L96.3192 237.531L115.398 232.041H136.76L158.122 235.737L179.484 237.531L197.965 240.248L204.923 242.314V253.457L193.835 251.826L151.545 246.88H129.803H106.158L85.0674 258.838L68.1625 269.112L63.651 275.308L62.8357 290.963L53.3776 308.737L48.0508 319.826L41.0932 315.314L37.7773 309.933Z" fill="#808A7C"/>
<path d="M72.7286 340.852L64.0859 337.591V330.579L70.2282 314.489L80.9364 292.638L101.048 272.852L119.095 265.84L132.249 261.709H154.807L171.657 267.906L193.454 275.951L195.465 279.429V286.822L176.604 280.245L152.361 270.787L133.879 270.352L117.029 278.179L100.233 290.953L89.1443 305.847L74.7399 319.816L72.7286 340.852Z" fill="#808A7C"/>
<path d="M92.0254 380.001V330.156V319.828L101.049 307.054L115.399 295.911L129.749 288.084H147.415H162.634L171.277 292.596L181.115 299.173C181.115 299.173 174.538 303.304 173.723 305.369C172.908 307.435 158.938 299.608 158.938 299.608L142.903 296.292L127.738 298.357L117.029 306.185L106.158 322.274V336.733L101.049 370.543L103.114 380.001H92.0254Z" fill="#808A7C"/>
<path d="M115.398 356.138L125.672 346.843L129.803 333.037L140.457 319.828L153.176 318.198L159.318 319.828L167.146 310.751C167.146 310.751 160.188 311.186 156.492 310.751C152.796 310.37 134.749 310.751 134.749 310.751L119.53 325.21L115.398 342.93V356.138Z" fill="#808A7C"/>
</g>
</g>
</svg>
