<svg width="225" height="413" viewBox="0 0 225 413" fill="none" xmlns="http://www.w3.org/2000/svg">
<mask id="mask0_533_6811" style="mask-type:alpha" maskUnits="userSpaceOnUse" x="0" y="0" width="225" height="413">
<path d="M102.096 382.048C-74.9356 284.803 11.5042 193.452 112.187 0.435791C218.763 204.748 300.292 286.277 113.66 392.362V412.498L101.382 409.06L102.096 382.048Z" fill="#5B6856"/>
</mask>
<g mask="url(#mask0_533_6811)">
<path d="M102.096 382.048C-74.9356 284.803 11.5042 193.452 112.187 0.435791C218.763 204.748 300.292 286.277 113.66 392.362V412.498L101.382 409.06L102.096 382.048Z" fill="#506050"/>
<g opacity="0.5">
<path d="M82.5 81.5C95.3101 58.7425 102.761 52.3465 111.5 19.5C118.594 46.1056 125.397 50.2596 138 72L111.5 75L82.5 81.5Z" fill="#808A7C"/>
<path d="M93.2248 92.7675H112.634L131.042 85L180.5 72.5L177.5 85L133 95.6046L113.112 101.233L103.408 103.698L93.2248 106.163L85 109L36.5 99.5V90.5L93.2248 92.7675Z" fill="#808A7C"/>
<path d="M79.292 126.341L117.919 128.67L132.659 126.341L144.147 123L190 115L196 123L150 136.363L75 139L32 129L32.5 121L79.292 126.341Z" fill="#808A7C"/>
<path d="M62.2884 160.017L106.703 157.994L120.602 155.312L139.148 150.65L153.749 147H159.361L204.5 141.5L219.5 153.5L163 160.017L131.212 164.987L107.361 168.329L80.5278 170L5.5 168.329L11.5 157.994L62.2884 160.017Z" fill="#808A7C"/>
<path d="M-21 216L-11.3013 204.962L5.69024 198.903L28.9969 193.924L56.2885 190.026L93.2036 188.241H142.599L195.979 185H216.429L222.143 192.515L225 195.333L163.65 197.494H116.51L78.3924 198.903L49.4468 202.144L19.8998 207.451L-3.33186 212.806L-21 216Z" fill="#808A7C"/>
<path d="M-11 243.233L17.7619 232.574L43.6666 226.098L77.254 217.401L106.079 212.072L129.064 209H154.016L186.143 213.219L214.46 214.625L223.095 217.438L225 226.135L222.143 227.541L174.206 219.954L141.127 216.587L109 216.883L67.7302 226.135C67.7302 226.135 28.365 239.347 28.365 239.606C28.365 239.865 4.87302 248.303 4.87302 248.303L-8.58746 257H-11V243.233Z" fill="#808A7C"/>
<path d="M2.35281 295.292C3.77686 295.292 13.126 281.44 16.4075 280.756C19.689 280.073 32.3198 269.365 32.3198 269.365L52.4422 256.925L73.9888 245.852L96.8973 238.06L123.088 233.732L156.274 232L194.166 234.415L209.583 238.06L225 243.756V258.292L202.525 247.219L182.898 242.708L159.494 241.66H131.446L97.7642 245.123C97.7642 245.123 81.8519 252.049 79.0657 252.733C76.2795 253.416 44.4551 270.002 44.4551 270.002C44.4551 270.002 27.6141 282.442 27.6141 283.49C27.6141 284.538 14.9836 303.904 14.9836 303.904L11.7021 306L0 296.659L2.35281 295.292Z" fill="#808A7C"/>
<path d="M42.2773 332.893L49.2894 320.934L56.247 307.78L60.7585 290.005L67.3357 278.917L80.0551 269.839L100.819 260.49L119.898 255H141.26L162.622 258.696L183.984 260.49L202.465 263.208L228 269.839V281.798L198.335 274.786L156.045 269.839H134.303H110.658L89.5674 281.798L72.6625 292.071L68.151 298.268L67.3357 313.922L57.8776 331.697L52.5508 342.785L39 365.959L27 351.459L29 345.959L42.2773 332.893Z" fill="#808A7C"/>
<path d="M78.4141 379.791L70 374.791V348.87L76.1423 332.78L86.8505 310.929L106.962 291.143L125.009 284.131L138.163 280H160.721L177.571 286.197L222.414 304.791L224.914 310.929L222.414 312.791L182.518 298.536L158.275 289.078L139.794 288.643L122.943 296.47L106.147 309.244L95.0584 324.137L80.654 338.107L78.4141 379.791Z" fill="#808A7C"/>
<path d="M97 424L106 342.871V334.556L113.292 324.273L124.89 315.302L136.487 309H150.764H163.064L170.049 312.632L207.5 334.556C207.5 334.556 209.159 339.837 208.5 341.5C207.841 343.163 160.077 318.277 160.077 318.277L147.118 315.608L134.862 317.271L126.207 323.573L117.422 336.526V348.166L113.292 375.386L114.5 435L97 424Z" fill="#808A7C"/>
<path d="M131.273 404L136 407.5L139.413 347.238L147.854 336.51L157.932 335.185L199.5 362L206 349C206 349 163.487 329.491 160.559 329.137C157.63 328.828 143.332 329.137 143.332 329.137L131.273 340.88L128 355.272L131.273 404Z" fill="#808A7C"/>
</g>
</g>
</svg>
