<svg xmlns="http://www.w3.org/2000/svg">

    <symbol viewBox="0 0 40 40" id="burger-link">
        <path d="M32 16H8" stroke-width="1.5" stroke-linecap="square" />
        <path d="M32 24H8" stroke-width="1.5" stroke-linecap="square" />
    </symbol>

    <symbol viewBox="0 0 40 40" id="burger-close">
        <path d="M28.4852 11.5148L11.5146 28.4854" stroke-width="1.5" stroke-linecap="square" />
        <path d="M28.4852 28.4852L11.5146 11.5146" stroke-width="1.5" stroke-linecap="square" />
    </symbol>

    <symbol viewBox="0 0 24 24" id="btn-arrow">
        <path d="M17.6569 6.34277L6.34326 17.6565" stroke-width="1.5" stroke-miterlimit="10" stroke-linecap="round" />
        <path d="M18.1008 16.7331V7.43775C18.1017 7.23558 18.0625 7.03516 17.9854 6.84812C17.9084 6.66107 17.7951 6.49115 17.6521 6.34813C17.5091 6.2051 17.3392 6.09182 17.1521 6.01488C16.9651 5.93777 16.7647 5.89859 16.5625 5.89943L7.26709 5.89944" stroke-width="1.5" stroke-linecap="round" stroke-linejoin="round" />
    </symbol>

    <symbol viewBox="0 0 64 64" id="main-welcome-scroll">
        <path d="M42 30L32 40L22 30" stroke-width="2" />
    </symbol>

    <symbol viewBox="0 0 40 40" id="icon-download">
        <path d="M34.4668 11.6895C34.0967 10.9161 33.5752 10.2247 32.9333 9.65615L27.9333 5.12282C26.8328 4.11407 25.4355 3.4885 23.95 3.33951H13.6835C12.5794 3.2927 11.477 3.4659 10.4405 3.84912C9.40398 4.23233 8.45415 4.8179 7.64608 5.57168C6.83802 6.32546 6.1879 7.2324 5.73365 8.23978C5.27938 9.24715 5.02995 10.3348 5 11.4395V28.6062C5.05897 30.272 5.6163 31.8818 6.59973 33.2278C7.58317 34.5737 8.94758 35.5938 10.5168 36.1562C11.5375 36.542 12.6269 36.7123 13.7166 36.6562H26.3167C27.4208 36.703 28.523 36.5297 29.5595 36.1465C30.596 35.7633 31.546 35.1778 32.3542 34.424C33.1622 33.6702 33.8123 32.7632 34.2665 31.7558C34.7208 30.7485 34.97 29.6608 35 28.5562V14.2728C35.008 13.3836 34.8263 12.5028 34.4668 11.6895ZM26.4002 25.1562L21.9668 29.6062C21.7118 29.8547 21.412 30.0527 21.0833 30.1895C20.8618 30.2892 20.6252 30.3512 20.3833 30.3728C20.1638 30.4228 19.9362 30.4228 19.7168 30.3728C19.4748 30.3512 19.2382 30.2892 19.0167 30.1895C18.688 30.0527 18.3883 29.8547 18.1333 29.6062L13.7 25.1562C13.4269 24.8373 13.2844 24.4272 13.3006 24.0077C13.3168 23.5883 13.4906 23.1903 13.7874 22.8935C14.0843 22.5967 14.4821 22.4228 14.9015 22.4067C15.321 22.3905 15.7312 22.5332 16.05 22.8062L18.3833 25.1395V17.4562C18.3833 17.0142 18.5588 16.5902 18.8715 16.2776C19.184 15.9651 19.608 15.7895 20.05 15.7895C20.492 15.7895 20.916 15.9651 21.2287 16.2776C21.5412 16.5902 21.7167 17.0142 21.7167 17.4562V25.1395L24.0502 22.8062C24.369 22.5332 24.7792 22.3905 25.1985 22.4067C25.618 22.4228 26.0158 22.5967 26.3127 22.8935C26.6095 23.1903 26.7833 23.5883 26.7995 24.0077C26.8157 24.4272 26.6732 24.8373 26.4002 25.1562ZM26.7668 12.3395C26.529 12.3417 26.2932 12.2968 26.0728 12.2073C25.8525 12.1178 25.6522 11.9856 25.4832 11.8182C25.3143 11.6508 25.1802 11.4517 25.0887 11.2322C24.9972 11.0127 24.95 10.7773 24.95 10.5395V6.12283C25.4182 6.37623 25.8692 6.6602 26.3 6.97285L31.3 11.5228C31.576 11.7553 31.8125 12.0312 32.0002 12.3395H26.7668Z" />
    </symbol>

    <symbol viewBox="0 0 20 25" id="main-ambience-play">
        <path d="M0 25V0L20 12.5L0 25Z" />
    </symbol>

    <symbol viewBox="0 0 16 16" id="slider-prev">
        <path d="M10 15L3 8L10 1" stroke-width="2" />
    </symbol>

    <symbol viewBox="0 0 16 16" id="slider-next">
        <path d="M6 1L13 8L6 15" stroke-width="2" />
    </symbol>

    <symbol viewBox="0 0 28 28" id="icon-drag">
        <path fill-rule="evenodd" clip-rule="evenodd" d="M16.5932 26.2584L16.5822 26.2604L16.5112 26.2954L16.4912 26.2994L16.4772 26.2954L16.4062 26.2604C16.3955 26.2571 16.3875 26.2588 16.3822 26.2654L16.3782 26.2754L16.3612 26.7034L16.3662 26.7234L16.3762 26.7364L16.4802 26.8104L16.4952 26.8144L16.5072 26.8104L16.6112 26.7364L16.6232 26.7204L16.6272 26.7034L16.6102 26.2764C16.6075 26.2658 16.6018 26.2598 16.5932 26.2584ZM16.8582 26.1454L16.8452 26.1474L16.6602 26.2404L16.6502 26.2504L16.6472 26.2614L16.6652 26.6914L16.6702 26.7034L16.6782 26.7104L16.8792 26.8034C16.8918 26.8068 16.9015 26.8041 16.9082 26.7954L16.9122 26.7814L16.8782 26.1674C16.8748 26.1554 16.8682 26.1481 16.8582 26.1454ZM16.1432 26.1474C16.1388 26.1448 16.1335 26.1439 16.1285 26.145C16.1234 26.1461 16.119 26.1491 16.1162 26.1534L16.1102 26.1674L16.0762 26.7814C16.0768 26.7934 16.0825 26.8014 16.0932 26.8054L16.1082 26.8034L16.3092 26.7104L16.3192 26.7024L16.3232 26.6914L16.3402 26.2614L16.3372 26.2494L16.3272 26.2394L16.1432 26.1474Z" />
        <path fill-rule="evenodd" clip-rule="evenodd" d="M10.9992 7.5C10.9992 6.83696 11.2626 6.20107 11.7314 5.73223C12.2003 5.26339 12.8362 5 13.4992 5C14.1622 5 14.7981 5.26339 15.267 5.73223C15.7358 6.20107 15.9992 6.83696 15.9992 7.5V12.105L21.4412 12.71C22.4194 12.8188 23.3232 13.2844 23.9796 14.0177C24.6361 14.7511 24.9991 15.7008 24.9992 16.685V17C24.9992 19.1217 24.1563 21.1566 22.6561 22.6569C21.1558 24.1571 19.1209 25 16.9992 25H16.3252C14.8396 25 13.3834 24.5862 12.1196 23.8052C10.8559 23.0242 9.83463 21.9067 9.1702 20.578L6.3282 14.894C5.9682 14.174 6.2352 13.211 7.0752 12.866C8.1182 12.439 9.1092 12.359 10.1302 12.878C10.4255 13.0293 10.7152 13.224 10.9992 13.462V7.5ZM13.4992 7C13.3666 7 13.2394 7.05268 13.1456 7.14645C13.0519 7.24021 12.9992 7.36739 12.9992 7.5V16C12.999 16.207 12.9346 16.4089 12.8148 16.5778C12.6951 16.7466 12.5258 16.8742 12.3305 16.9427C12.1352 17.0113 11.9233 17.0176 11.7243 16.9607C11.5252 16.9038 11.3488 16.7865 11.2192 16.625C10.2942 15.469 9.7022 14.905 9.2242 14.661C8.96918 14.5223 8.67252 14.4807 8.3892 14.544L10.9592 19.684C11.4576 20.6804 12.2235 21.5184 13.1713 22.1041C14.119 22.6897 15.2111 23 16.3252 23H16.9992C18.5905 23 20.1166 22.3679 21.2418 21.2426C22.3671 20.1174 22.9992 18.5913 22.9992 17V16.685C22.9992 16.1926 22.8176 15.7176 22.4892 15.3507C22.1608 14.9839 21.7086 14.7512 21.2192 14.697L15.7792 14.093C15.2898 14.0388 14.8376 13.8061 14.5092 13.4393C14.1808 13.0724 13.9992 12.5974 13.9992 12.105V7.5C13.9992 7.36739 13.9465 7.24021 13.8528 7.14645C13.759 7.05268 13.6318 7 13.4992 7Z" />
        <path d="M25.3536 8.35355C25.5488 8.15829 25.5488 7.84171 25.3536 7.64645L22.1716 4.46447C21.9763 4.2692 21.6597 4.2692 21.4645 4.46447C21.2692 4.65973 21.2692 4.97631 21.4645 5.17157L24.2929 8L21.4645 10.8284C21.2692 11.0237 21.2692 11.3403 21.4645 11.5355C21.6597 11.7308 21.9763 11.7308 22.1716 11.5355L25.3536 8.35355ZM18 8.5L25 8.5L25 7.5L18 7.5L18 8.5Z" />
        <path d="M1.64645 7.64645C1.45118 7.84171 1.45118 8.15829 1.64645 8.35355L4.82843 11.5355C5.02369 11.7308 5.34027 11.7308 5.53553 11.5355C5.7308 11.3403 5.7308 11.0237 5.53553 10.8284L2.70711 8L5.53553 5.17157C5.7308 4.97631 5.7308 4.65973 5.53553 4.46447C5.34027 4.2692 5.02369 4.2692 4.82843 4.46447L1.64645 7.64645ZM9 7.5L2 7.5L2 8.5L9 8.5L9 7.5Z" />
    </symbol>

    <symbol viewBox="0 0 48 48" id="main-forest-scheme-menu">
        <path d="M39 24H9M9 24L17 16M9 24L17 32" stroke-width="2" stroke-linecap="round" stroke-linejoin="round" />
    </symbol>

    <symbol viewBox="0 0 16 16" id="progress-select-arrow">
        <path d="M15 6L8 13L1 6" stroke-width="2" />
    </symbol>

    <symbol viewBox="0 0 48 48" id="faq-plus">
        <path d="M24 9V39" stroke-width="2" stroke-linecap="round" stroke-linejoin="round" />
        <path d="M39 24H9" stroke-width="2" stroke-linecap="round" stroke-linejoin="round" />
    </symbol>

    <symbol viewBox="0 0 48 48" id="faq-minus">
        <path d="M39 24H9" stroke-width="2" stroke-linecap="round" stroke-linejoin="round" />
    </symbol>

    <symbol viewBox="0 0 24 24" id="select-arrow">
        <path d="M4 8.41699L10.5866 15.0038C10.9633 15.3751 11.471 15.5832 12 15.5832C12.529 15.5832 13.0367 15.3751 13.4134 15.0038L20 8.41699" stroke-width="1.5" stroke-linecap="round" stroke-linejoin="round" />
    </symbol>

    <symbol viewBox="0 0 16 16" id="window-close">
        <path d="M13.6569 2.34338L2.34315 13.6571M2.34315 2.34338L13.6569 13.6571" stroke-width="1.5" />
    </symbol>

    <symbol viewBox="0 0 24 24" id="link-arrow">
        <path d="M20 12H4" stroke-width="1.5" stroke-miterlimit="10" stroke-linecap="round" />
        <path d="M12.9678 19.661L19.5406 13.0882C19.6842 12.9458 19.7982 12.7764 19.8759 12.5896C19.9538 12.4029 19.9938 12.2027 19.9938 12.0004C19.9938 11.7981 19.9538 11.5979 19.8759 11.4112C19.7982 11.2244 19.6842 11.055 19.5406 10.9127L12.9678 4.33984" stroke-width="1.5" stroke-linecap="round" stroke-linejoin="round" />
    </symbol>

    <symbol viewBox="0 0 24 24" id="detail-scheme-pref">
        <path d="M16.68 7.08797C22.2515 12.6594 21.972 21.972 21.972 21.972C21.972 21.972 12.6594 22.2515 7.08798 16.68C1.51654 11.1086 1.79603 1.79601 1.79603 1.79601C1.79603 1.79601 11.1086 1.51653 16.68 7.08797Z" />
    </symbol>

    <symbol viewBox="0 0 24 24" id="icon-favourite">
        <path d="M12 7.22943C10.2671 3.30564 6.23596 2.95686 4.35874 4.66807C2.83049 6.0414 2.09645 9.33301 3.49233 12.363C5.89902 17.573 12 20.3087 12 20.3087C12 20.3087 18.101 17.573 20.5076 12.363C21.9036 9.33301 21.1695 6.0414 19.6413 4.66807C17.764 2.95686 13.7328 3.30564 12 7.22943Z" stroke-width="1.5" stroke-linecap="round" stroke-linejoin="round" />
    </symbol>

    <symbol viewBox="0 0 24 24" id="detail-download">
        <path fill-rule="evenodd" clip-rule="evenodd" d="M21 16.3636V8.72724L18.5993 8.72724C15.2993 8.72724 14.1992 7.63635 14.1992 4.36363V2H8.70004C6.14379 2 4.87451 2.51974 4.19584 3.1928C3.52127 3.86179 3 5.10989 3 7.63635V16.3636C3 18.8901 3.52127 20.1382 4.19584 20.8072C4.87452 21.4802 6.1438 22 8.70004 22H15.3001C17.8563 22 19.1255 21.4803 19.8042 20.8072C20.4787 20.1382 21 18.8901 21 16.3636ZM23 8.72724L22.9992 8.72724L14.2 0.000793518V0H14.1992H8.70004C3.2 0 1 2.18182 1 7.63635V16.3636C1 21.8181 3.2 24 8.70004 24H15.3001C20.8 24 23 21.8181 23 16.3636V8.72724ZM9.63745 12C9.63745 11.4822 9.21772 11.0625 8.69995 11.0625C8.18218 11.0625 7.76245 11.4822 7.76245 12V16.2955L7.16012 15.6982C6.79247 15.3336 6.19889 15.3361 5.83431 15.7038C5.46973 16.0714 5.47223 16.665 5.83988 17.0296L8.03983 19.2111C8.40531 19.5736 8.99464 19.5735 9.36011 19.2111L11.5601 17.0293C11.9277 16.6647 11.9302 16.0711 11.5656 15.7035C11.201 15.3359 10.6074 15.3334 10.2398 15.698L9.63745 16.2953V12Z" />
    </symbol>

    <symbol viewBox="0 0 24 24" id="select-sort">
        <path d="M4.5 18.25H11.5" stroke-width="1.5" stroke-miterlimit="10" stroke-linecap="round" />
        <path d="M4.5 12H17.5" stroke-width="1.5" stroke-miterlimit="10" stroke-linecap="round" />
        <path d="M4.5 5.75H19.5" stroke-width="1.5" stroke-miterlimit="10" stroke-linecap="round" />
    </symbol>

    <symbol viewBox="0 0 24 24" id="select-filter">
        <path d="M21.25 12H8.89465" stroke-width="1.5" stroke-miterlimit="10" stroke-linecap="round" />
        <path d="M4.53393 12H2.75" stroke-width="1.5" stroke-miterlimit="10" stroke-linecap="round" />
        <path d="M21.2499 18.6071H15.5017" stroke-width="1.5" stroke-miterlimit="10" stroke-linecap="round" />
        <path d="M11.1411 18.6071H2.75" stroke-width="1.5" stroke-miterlimit="10" stroke-linecap="round" />
        <path d="M21.25 5.39285H18.1447" stroke-width="1.5" stroke-miterlimit="10" stroke-linecap="round" />
        <path d="M13.7839 5.39285H2.75" stroke-width="1.5" stroke-miterlimit="10" stroke-linecap="round" />
        <path d="M15.9642 7.57323C17.1684 7.57323 18.1445 6.59705 18.1445 5.39288C18.1445 4.1887 17.1684 3.21252 15.9642 3.21252C14.76 3.21252 13.7838 4.1887 13.7838 5.39288C13.7838 6.59705 14.76 7.57323 15.9642 7.57323Z" stroke-width="1.5" stroke-miterlimit="10" stroke-linecap="round" />
        <path d="M6.71416 14.1804C7.91834 14.1804 8.89452 13.2042 8.89452 12.0001C8.89452 10.7959 7.91834 9.8197 6.71416 9.8197C5.50999 9.8197 4.53381 10.7959 4.53381 12.0001C4.53381 13.2042 5.50999 14.1804 6.71416 14.1804Z" stroke-width="1.5" stroke-miterlimit="10" stroke-linecap="round" />
        <path d="M13.3214 20.7875C14.5255 20.7875 15.5017 19.8113 15.5017 18.6071C15.5017 17.4029 14.5255 16.4268 13.3214 16.4268C12.1172 16.4268 11.141 17.4029 11.141 18.6071C11.141 19.8113 12.1172 20.7875 13.3214 20.7875Z" stroke-width="1.5" stroke-miterlimit="10" stroke-linecap="round" />
    </symbol>

</svg>