<svg width="148" height="148" viewBox="0 0 148 148" fill="none" xmlns="http://www.w3.org/2000/svg">
<g clip-path="url(#clip0_4021_8232)">
<circle cx="74" cy="74" r="73" stroke="#D8DDCC" stroke-width="2"/>
<path d="M38 38L110 110" stroke="#D8DDCC" stroke-width="2"/>
<path d="M38 38L74 74" stroke="#506050" stroke-width="2"/>
<path d="M110 38L38 110" stroke="#D8DDCC" stroke-width="2"/>
<path d="M29.7183 35.156C28.375 35.156 27.257 34.714 26.3643 33.83C25.4803 32.9373 25.0383 31.8107 25.0383 30.45C25.0383 29.0893 25.4803 27.967 26.3643 27.083C27.257 26.1903 28.375 25.744 29.7183 25.744C30.429 25.744 31.0876 25.8827 31.6943 26.16C32.301 26.4373 32.808 26.8317 33.2153 27.343C33.6313 27.8543 33.9173 28.448 34.0733 29.124H32.5653C32.3486 28.5173 31.989 28.045 31.4863 27.707C30.9836 27.3603 30.3943 27.187 29.7183 27.187C28.8083 27.187 28.0543 27.4947 27.4563 28.11C26.8583 28.7253 26.5593 29.5097 26.5593 30.463C26.5593 31.4077 26.8583 32.1877 27.4563 32.803C28.0543 33.4097 28.8083 33.713 29.7183 33.713C30.4116 33.713 31.014 33.531 31.5253 33.167C32.0366 32.7943 32.392 32.2873 32.5913 31.646H34.1123C33.8783 32.712 33.3626 33.5657 32.5653 34.207C31.768 34.8397 30.819 35.156 29.7183 35.156Z" fill="#506050"/>
<path d="M33.9038 116.229C34.1552 116.368 34.3718 116.55 34.5538 116.775C34.7358 117 34.8745 117.252 34.9698 117.529C35.0738 117.806 35.1258 118.101 35.1258 118.413C35.1258 119.228 34.8182 119.891 34.2028 120.402C33.5875 120.905 32.8248 121.156 31.9148 121.156C31.3342 121.156 30.8055 121.043 30.3288 120.818C29.8608 120.593 29.4838 120.268 29.1978 119.843C28.9118 119.41 28.7602 118.916 28.7428 118.361H30.1988C30.2248 118.656 30.3158 118.916 30.4718 119.141C30.6278 119.358 30.8272 119.522 31.0698 119.635C31.3212 119.748 31.6028 119.804 31.9148 119.804C32.4175 119.804 32.8335 119.67 33.1628 119.401C33.4922 119.132 33.6568 118.781 33.6568 118.348C33.6568 117.923 33.5095 117.577 33.2148 117.308C32.9202 117.039 32.5388 116.905 32.0708 116.905H31.1088V115.631H32.0708C32.4868 115.631 32.8248 115.51 33.0848 115.267C33.3448 115.024 33.4748 114.712 33.4748 114.331C33.4748 113.941 33.3275 113.629 33.0328 113.395C32.7382 113.152 32.3655 113.031 31.9148 113.031C31.4902 113.031 31.1262 113.152 30.8228 113.395C30.5282 113.629 30.3592 113.937 30.3158 114.318H28.8858C28.9292 113.547 29.2368 112.923 29.8088 112.446C30.3895 111.969 31.0872 111.731 31.9018 111.731C32.7598 111.731 33.4748 111.969 34.0468 112.446C34.6275 112.914 34.9178 113.534 34.9178 114.305C34.9178 114.704 34.8268 115.072 34.6448 115.41C34.4715 115.748 34.2245 116.021 33.9038 116.229Z" fill="#506050"/>
<path d="M117.726 30.255C118.125 30.4543 118.437 30.749 118.662 31.139C118.896 31.5203 119.013 31.958 119.013 32.452C119.013 33.1627 118.74 33.765 118.194 34.259C117.657 34.753 116.998 35 116.218 35H112.474V25.9H116.14C116.903 25.9 117.531 26.1253 118.025 26.576C118.528 27.018 118.779 27.5727 118.779 28.24C118.779 28.6387 118.684 29.0243 118.493 29.397C118.302 29.761 118.047 30.047 117.726 30.255ZM117.297 28.461C117.297 28.1143 117.176 27.8327 116.933 27.616C116.699 27.3907 116.404 27.278 116.049 27.278H113.943V29.644H116.049C116.413 29.644 116.712 29.5313 116.946 29.306C117.18 29.0807 117.297 28.799 117.297 28.461ZM116.127 33.57C116.526 33.57 116.851 33.4487 117.102 33.206C117.362 32.9633 117.492 32.6557 117.492 32.283C117.492 31.9103 117.362 31.6027 117.102 31.36C116.851 31.1173 116.526 30.996 116.127 30.996H113.943V33.57H116.127Z" fill="#506050"/>
<path d="M118.646 111.731C119.981 111.731 121.082 112.177 121.948 113.07C122.824 113.954 123.261 115.081 123.261 116.45C123.261 117.351 123.062 118.162 122.663 118.881C122.273 119.6 121.727 120.164 121.025 120.571C120.323 120.97 119.53 121.169 118.646 121.169C117.442 121.169 116.419 120.796 115.578 120.051C114.738 119.297 114.239 118.326 114.083 117.139H112.809V121H111.314V111.9H112.809V115.748H114.083C114.239 114.561 114.738 113.594 115.578 112.849C116.419 112.104 117.442 111.731 118.646 111.731ZM118.607 119.726C119.526 119.726 120.28 119.418 120.869 118.803C121.459 118.179 121.753 117.395 121.753 116.45C121.753 115.505 121.454 114.725 120.856 114.11C120.267 113.486 119.517 113.174 118.607 113.174C117.706 113.174 116.952 113.486 116.345 114.11C115.747 114.725 115.448 115.505 115.448 116.45C115.448 117.395 115.747 118.179 116.345 118.803C116.943 119.418 117.697 119.726 118.607 119.726Z" fill="#506050"/>
</g>
<defs>
<clipPath id="clip0_4021_8232">
<rect width="148" height="148" fill="white"/>
</clipPath>
</defs>
</svg>
