<svg width="120" height="120" viewBox="0 0 120 120" fill="none" xmlns="http://www.w3.org/2000/svg">
<path d="M93.0001 4.78836L92.9759 10.0714C92.9152 10.1686 92.3937 10.3022 92.3937 10.3022C92.3937 10.3022 68.1503 15.816 65.7247 16.3261C65.3488 16.4111 64.9486 16.4718 64.5605 16.5082C62.4139 16.739 60.2066 16.4839 60.2066 16.4839C60.2066 16.4839 59.5517 16.4232 58.4238 16.3018C51.9597 15.6459 29.972 13.387 28.6501 13.2534C27.4131 13.1319 27.2433 12.9255 27.219 12.8526V12.8283L27.0371 7.63028C27.0371 7.63028 27.2069 7.75173 27.7163 7.80031C29.0382 7.92176 51.6686 10.0593 58.3389 10.6908C59.5032 10.8001 60.1823 10.8608 60.1823 10.8608C60.1823 10.8608 62.3411 11.0916 64.4756 10.8851C64.8879 10.8487 65.3124 10.788 65.7126 10.7151C68.1382 10.2414 91.5205 5.34703 92.4059 5.15271C92.7818 5.06769 93.0001 4.92196 93.0001 4.78836Z" fill="white" stroke="#D8DDCC" stroke-width="2" stroke-linejoin="round"/>
<path d="M92.9756 10.0593L92.9513 15.1845C92.8907 15.2938 92.3692 15.4395 92.3692 15.4395C92.3692 15.4395 68.15 21.3784 65.7245 21.9371C65.3606 22.0221 64.9968 22.0828 64.6208 22.1314C62.45 22.3865 60.2063 22.1071 60.2063 22.1071C60.2063 22.1071 59.5757 22.0342 58.4963 21.9128C52.1414 21.2084 30.1658 18.7673 28.8317 18.6215C27.619 18.4879 27.4249 18.2693 27.4007 18.1843V18.1479L27.2188 12.8405C27.243 12.9134 27.4007 13.1199 28.6498 13.2413C29.9596 13.3749 51.9594 15.6217 58.4235 16.2897C59.5393 16.399 60.1942 16.4719 60.1942 16.4719C60.1942 16.4719 62.4015 16.7269 64.5481 16.4962C64.9483 16.4597 65.3364 16.399 65.7123 16.314C68.1379 15.8039 92.3813 10.2901 92.3813 10.2901C92.3813 10.2901 92.915 10.1565 92.9635 10.0593" fill="white"/>
<path d="M92.9756 10.0593L92.9513 15.1845C92.8907 15.2938 92.3692 15.4395 92.3692 15.4395C92.3692 15.4395 68.15 21.3784 65.7245 21.9371C65.3606 22.0221 64.9968 22.0828 64.6208 22.1314C62.45 22.3865 60.2063 22.1071 60.2063 22.1071C60.2063 22.1071 59.5757 22.0342 58.4963 21.9128C52.1414 21.2084 30.1658 18.7673 28.8317 18.6215C27.619 18.4879 27.4249 18.2693 27.4007 18.1843V18.1479L27.2188 12.8405C27.243 12.9134 27.4007 13.1199 28.6498 13.2413C29.9596 13.3749 51.9594 15.6217 58.4235 16.2897C59.5393 16.399 60.1942 16.4719 60.1942 16.4719C60.1942 16.4719 62.4015 16.7269 64.5481 16.4962C64.9483 16.4597 65.3364 16.399 65.7123 16.314C68.1379 15.8039 92.3813 10.2901 92.3813 10.2901C92.3813 10.2901 92.915 10.1565 92.9635 10.0593" stroke="#D8DDCC" stroke-width="2" stroke-linejoin="round"/>
<path d="M92.9398 15.1844L92.9156 20.3096C92.8549 20.4311 92.3335 20.5768 92.3335 20.5768C92.3335 20.5768 68.1385 26.9408 65.713 27.5359C65.3734 27.6209 65.0338 27.6816 64.6821 27.7302C62.4991 28.0338 60.1948 27.7302 60.1948 27.7302C60.1948 27.7302 59.5884 27.6573 58.5454 27.5359C52.2996 26.795 30.3241 24.1596 29.0022 24.0017C27.7894 23.8559 27.5953 23.6252 27.5711 23.5402V23.4916L27.3892 18.1964C27.4134 18.2814 27.5953 18.5 28.8202 18.6336C30.1422 18.7794 52.1177 21.2083 58.4727 21.9249C59.552 22.0463 60.1827 22.1192 60.1827 22.1192C60.1827 22.1192 62.4385 22.3985 64.6093 22.1435C64.9853 22.0949 65.3491 22.0342 65.713 21.9492C68.1385 21.3905 92.3577 15.4516 92.3577 15.4516C92.3577 15.4516 92.8913 15.3059 92.9398 15.1966" fill="white"/>
<path d="M92.9398 15.1844L92.9156 20.3096C92.8549 20.4311 92.3335 20.5768 92.3335 20.5768C92.3335 20.5768 68.1385 26.9408 65.713 27.5359C65.3734 27.6209 65.0338 27.6816 64.6821 27.7302C62.4991 28.0338 60.1948 27.7302 60.1948 27.7302C60.1948 27.7302 59.5884 27.6573 58.5454 27.5359C52.2996 26.795 30.3241 24.1596 29.0022 24.0017C27.7894 23.8559 27.5953 23.6252 27.5711 23.5402V23.4916L27.3892 18.1964C27.4134 18.2814 27.5953 18.5 28.8202 18.6336C30.1422 18.7794 52.1177 21.2083 58.4727 21.9249C59.552 22.0463 60.1827 22.1192 60.1827 22.1192C60.1827 22.1192 62.4385 22.3985 64.6093 22.1435C64.9853 22.0949 65.3491 22.0342 65.713 21.9492C68.1385 21.3905 92.3577 15.4516 92.3577 15.4516C92.3577 15.4516 92.8913 15.3059 92.9398 15.1966" stroke="#D8DDCC" stroke-width="2" stroke-linejoin="round"/>
<path d="M92.9163 20.3096L92.892 25.4348C92.8314 25.5563 92.3099 25.7263 92.3099 25.7263C92.3099 25.7263 68.1392 32.5153 65.7137 33.159C65.3983 33.244 65.0709 33.3047 64.7434 33.3533C62.5362 33.6812 60.1955 33.3533 60.1955 33.3533C60.1955 33.3533 59.6134 33.2804 58.6189 33.1468C52.4823 32.3574 30.5188 29.5398 29.1848 29.3698C27.972 29.2119 27.7779 28.969 27.7537 28.8718V28.8232L27.5718 23.528C27.596 23.6252 27.7901 23.856 29.0029 23.9896C30.3248 24.1474 52.3003 26.7707 58.5461 27.5237C59.5891 27.6452 60.1955 27.7181 60.1955 27.7181C60.1955 27.7181 62.4877 28.0338 64.6828 27.7181C65.0345 27.6695 65.3862 27.6087 65.7137 27.5237C68.1392 26.9286 92.3342 20.5647 92.3342 20.5647C92.3342 20.5647 92.8678 20.4068 92.9284 20.2975" fill="white"/>
<path d="M92.9163 20.3096L92.892 25.4348C92.8314 25.5563 92.3099 25.7263 92.3099 25.7263C92.3099 25.7263 68.1392 32.5153 65.7137 33.159C65.3983 33.244 65.0709 33.3047 64.7434 33.3533C62.5362 33.6812 60.1955 33.3533 60.1955 33.3533C60.1955 33.3533 59.6134 33.2804 58.6189 33.1468C52.4822 32.3574 30.5188 29.5398 29.1848 29.3698C27.972 29.2119 27.7779 28.969 27.7537 28.8718V28.8232L27.5718 23.528C27.596 23.6252 27.7901 23.856 29.0029 23.9896C30.3248 24.1474 52.3003 26.7707 58.5461 27.5237C59.5891 27.6452 60.1955 27.7181 60.1955 27.7181C60.1955 27.7181 62.4877 28.0338 64.6828 27.7181C65.0345 27.6695 65.3862 27.6087 65.7137 27.5237C68.1392 26.9286 92.3342 20.5647 92.3342 20.5647C92.3342 20.5647 92.8678 20.4068 92.9284 20.2975" stroke="#D8DDCC" stroke-width="2" stroke-linejoin="round"/>
<path d="M92.8907 25.4348L92.8665 30.56C92.8058 30.6936 92.2843 30.8636 92.2843 30.8636C92.2843 30.8636 68.1379 38.0777 65.7123 38.7578C65.4213 38.8428 65.1181 38.9036 64.8028 38.9521C62.5712 39.3286 60.1821 38.9521 60.1821 38.9521C60.1821 38.9521 59.6242 38.8793 58.6661 38.7457C52.6507 37.9198 30.6873 34.9079 29.3532 34.7257C28.1405 34.5678 27.9464 34.3006 27.9222 34.1913V34.1427L27.7402 28.8475C27.7645 28.9447 27.9464 29.1997 29.1713 29.3455C30.4932 29.5155 52.4688 32.3331 58.5933 33.1226C59.5878 33.244 60.1699 33.329 60.1699 33.329C60.1699 33.329 62.5106 33.6691 64.7179 33.329C65.0453 33.2805 65.3728 33.2197 65.6881 33.1347C68.1136 32.491 92.2843 25.702 92.2843 25.702C92.2843 25.702 92.8179 25.532 92.8665 25.4105" fill="white"/>
<path d="M92.8907 25.4348L92.8665 30.56C92.8058 30.6936 92.2843 30.8636 92.2843 30.8636C92.2843 30.8636 68.1379 38.0777 65.7123 38.7578C65.4213 38.8428 65.1181 38.9036 64.8028 38.9521C62.5712 39.3286 60.1821 38.9521 60.1821 38.9521C60.1821 38.9521 59.6242 38.8793 58.6661 38.7457C52.6507 37.9198 30.6873 34.9079 29.3532 34.7257C28.1405 34.5678 27.9464 34.3006 27.9222 34.1913V34.1427L27.7402 28.8475C27.7645 28.9447 27.9464 29.1997 29.1713 29.3455C30.4932 29.5155 52.4688 32.3331 58.5933 33.1226C59.5878 33.244 60.1699 33.329 60.1699 33.329C60.1699 33.329 62.5106 33.6691 64.7179 33.329C65.0453 33.2805 65.3728 33.2197 65.6881 33.1347C68.1136 32.491 92.2843 25.702 92.2843 25.702C92.2843 25.702 92.8179 25.532 92.8665 25.4105" stroke="#D8DDCC" stroke-width="2" stroke-linejoin="round"/>
<path d="M92.8667 30.5599L92.8425 35.6851C92.7818 35.8308 92.2603 36.013 92.2603 36.013C92.2603 36.013 68.1382 43.6522 65.7126 44.3809C65.4337 44.4659 65.1547 44.5266 64.8758 44.5874C62.6322 45.0003 60.1945 44.6116 60.1945 44.6116C60.1945 44.6116 59.6609 44.5388 58.7513 44.4052C52.8572 43.5429 30.8938 40.3366 29.5476 40.1423C28.3469 39.9723 28.1529 39.6929 28.1165 39.5836V39.5351L27.9346 34.252C27.9588 34.3613 28.1407 34.6285 29.3656 34.7864C30.6997 34.9686 52.6631 37.9805 58.6785 38.8064C59.6366 38.94 60.1945 39.0128 60.1945 39.0128C60.1945 39.0128 62.5837 39.3772 64.8152 39.0128C65.1184 38.9642 65.4216 38.8914 65.7248 38.8185C68.1503 38.1384 92.2967 30.9243 92.2967 30.9243C92.2967 30.9243 92.8182 30.7543 92.8789 30.6207" fill="white"/>
<path d="M92.8667 30.5599L92.8425 35.6851C92.7818 35.8308 92.2603 36.013 92.2603 36.013C92.2603 36.013 68.1382 43.6522 65.7126 44.3809C65.4337 44.4659 65.1547 44.5266 64.8758 44.5874C62.6322 45.0003 60.1945 44.6116 60.1945 44.6116C60.1945 44.6116 59.6609 44.5388 58.7513 44.4052C52.8572 43.5429 30.8938 40.3366 29.5476 40.1423C28.3469 39.9723 28.1529 39.6929 28.1165 39.5836V39.5351L27.9346 34.252C27.9588 34.3613 28.1407 34.6285 29.3656 34.7864C30.6997 34.9686 52.6631 37.9805 58.6785 38.8064C59.6366 38.94 60.1945 39.0128 60.1945 39.0128C60.1945 39.0128 62.5837 39.3772 64.8152 39.0128C65.1184 38.9642 65.4216 38.8914 65.7248 38.8185C68.1503 38.1384 92.2967 30.9243 92.2967 30.9243C92.2967 30.9243 92.8182 30.7543 92.8789 30.6207" stroke="#D8DDCC" stroke-width="2" stroke-linejoin="round"/>
<path d="M92.8427 35.673L92.8184 40.7982C92.7578 40.9439 92.2363 41.1504 92.2363 41.1504C92.2363 41.1504 68.1505 49.2147 65.7128 49.9798C65.4582 50.0648 65.2035 50.1255 64.9367 50.1741C62.6809 50.6356 60.1947 50.2105 60.1947 50.2105C60.1947 50.2105 59.6853 50.1377 58.8121 49.9919C53.0272 49.0932 31.0759 45.6805 29.7297 45.474C28.5169 45.2918 28.3229 44.9882 28.2986 44.8789V44.8303L28.1167 39.5473C28.141 39.6566 28.335 39.9359 29.5478 40.1059C30.8818 40.3003 52.8453 43.5065 58.7515 44.3688C59.6732 44.5024 60.2068 44.5753 60.2068 44.5753C60.2068 44.5753 62.6445 44.9761 64.8881 44.5631C65.1671 44.5146 65.4582 44.4417 65.725 44.3567C68.1505 43.628 92.2727 35.9888 92.2727 35.9888C92.2727 35.9888 92.8063 35.8066 92.8548 35.6609" fill="white"/>
<path d="M92.8427 35.673L92.8184 40.7982C92.7578 40.9439 92.2363 41.1504 92.2363 41.1504C92.2363 41.1504 68.1505 49.2147 65.7128 49.9798C65.4582 50.0648 65.2035 50.1255 64.9367 50.1741C62.6809 50.6356 60.1947 50.2105 60.1947 50.2105C60.1947 50.2105 59.6853 50.1377 58.8121 49.9919C53.0272 49.0932 31.0759 45.6805 29.7297 45.474C28.5169 45.2918 28.3229 44.9882 28.2986 44.8789V44.8303L28.1167 39.5473C28.141 39.6566 28.335 39.9359 29.5478 40.1059C30.8818 40.3003 52.8453 43.5065 58.7515 44.3688C59.6732 44.5024 60.2068 44.5753 60.2068 44.5753C60.2068 44.5753 62.6445 44.9761 64.8882 44.5631C65.1671 44.5146 65.4582 44.4417 65.725 44.3567C68.1505 43.628 92.2727 35.9888 92.2727 35.9888C92.2727 35.9888 92.8063 35.8066 92.8548 35.6609" stroke="#D8DDCC" stroke-width="2" stroke-linejoin="round"/>
<path d="M92.8195 40.7982L92.7953 45.9233C92.7347 46.0812 92.201 46.2877 92.201 46.2877C92.201 46.2877 68.1395 54.777 65.7139 55.5907C65.4835 55.6636 65.241 55.7364 64.9984 55.785C62.7184 56.2951 60.1837 55.8336 60.1837 55.8336C60.1837 55.8336 59.6986 55.7486 58.8617 55.615C53.1981 54.6798 31.2468 51.0728 29.9006 50.8542C28.6878 50.6599 28.5059 50.3441 28.4695 50.2226V50.1619L28.2876 44.8789C28.3119 45.0003 28.4938 45.2918 29.7187 45.474C31.0527 45.6804 53.0162 49.0932 58.8011 49.9919C59.6864 50.1255 60.1837 50.2105 60.1837 50.2105C60.1837 50.2105 62.6699 50.6356 64.9256 50.1741C65.1924 50.1133 65.4471 50.0526 65.7018 49.9676C68.1274 49.2025 92.2253 41.1382 92.2253 41.1382C92.2253 41.1382 92.7589 40.9439 92.8074 40.786" fill="white"/>
<path d="M92.8195 40.7982L92.7953 45.9233C92.7347 46.0812 92.201 46.2877 92.201 46.2877C92.201 46.2877 68.1395 54.777 65.7139 55.5907C65.4835 55.6636 65.241 55.7364 64.9984 55.785C62.7184 56.2951 60.1837 55.8336 60.1837 55.8336C60.1837 55.8336 59.6986 55.7486 58.8617 55.615C53.1981 54.6798 31.2468 51.0728 29.9006 50.8542C28.6878 50.6599 28.5059 50.3441 28.4695 50.2226V50.1619L28.2876 44.8789C28.3119 45.0003 28.4938 45.2918 29.7187 45.474C31.0527 45.6804 53.0162 49.0932 58.8011 49.9919C59.6864 50.1255 60.1837 50.2105 60.1837 50.2105C60.1837 50.2105 62.6699 50.6356 64.9256 50.1741C65.1924 50.1133 65.4471 50.0526 65.7018 49.9676C68.1274 49.2025 92.2253 41.1382 92.2253 41.1382C92.2253 41.1382 92.7589 40.9439 92.8074 40.786" stroke="#D8DDCC" stroke-width="2" stroke-linejoin="round"/>
<path d="M92.7931 45.9233L92.7689 51.0485C92.7082 51.2185 92.1868 51.4371 92.1868 51.4371C92.1868 51.4371 68.1495 60.3515 65.7239 61.2138C65.5177 61.2867 65.2994 61.3474 65.0812 61.4082C62.789 61.9668 60.2058 61.4689 60.2058 61.4689C60.2058 61.4689 59.7449 61.3839 58.9445 61.2503C53.4142 60.2908 31.4387 56.4652 30.0925 56.2465C28.8918 56.0401 28.6978 55.7243 28.6614 55.5907L28.4795 50.2469C28.5037 50.3684 28.6978 50.6842 29.9106 50.8785C31.2568 51.0971 53.2202 54.7163 58.8717 55.6393C59.7085 55.7729 60.1937 55.8579 60.1937 55.8579C60.1937 55.8579 62.7284 56.3194 64.9963 55.8093C65.2388 55.7607 65.4814 55.6879 65.7118 55.615C68.1373 54.8013 92.1989 46.312 92.1989 46.312C92.1989 46.312 92.7204 46.1055 92.7931 45.9476" fill="white"/>
<path d="M92.7931 45.9233L92.7689 51.0485C92.7082 51.2185 92.1868 51.4371 92.1868 51.4371C92.1868 51.4371 68.1495 60.3515 65.7239 61.2138C65.5178 61.2867 65.2994 61.3474 65.0811 61.4082C62.789 61.9668 60.2058 61.4689 60.2058 61.4689C60.2058 61.4689 59.7449 61.3839 58.9445 61.2503C53.4142 60.2908 31.4387 56.4652 30.0925 56.2465C28.8918 56.0401 28.6978 55.7243 28.6614 55.5907L28.4795 50.2469C28.5037 50.3684 28.6978 50.6842 29.9106 50.8785C31.2568 51.0971 53.2202 54.7163 58.8717 55.6393C59.7085 55.7729 60.1937 55.8579 60.1937 55.8579C60.1937 55.8579 62.7284 56.3194 64.9963 55.8093C65.2388 55.7608 65.4814 55.6879 65.7118 55.615C68.1373 54.8013 92.1989 46.312 92.1989 46.312C92.1989 46.312 92.7204 46.1055 92.7931 45.9476" stroke="#D8DDCC" stroke-width="2" stroke-linejoin="round"/>
<path d="M92.7692 51.0485L92.7449 56.1736C92.6843 56.3558 92.1628 56.5866 92.1628 56.5866C92.1628 56.5866 68.1498 65.926 65.7242 66.8248C65.5302 66.8976 65.3361 66.9583 65.1421 67.0069C62.8257 67.6263 60.2061 67.0919 60.2061 67.0919C60.2061 67.0919 59.7695 67.0191 59.0176 66.8733C53.6207 65.8774 31.633 61.8453 30.2868 61.6146C29.074 61.4081 28.88 61.0559 28.8557 60.9102V60.8494L28.6738 55.5785C28.6981 55.7121 28.9043 56.04 30.1049 56.2344C31.4511 56.453 53.4266 60.2786 58.9569 61.2381C59.7573 61.3717 60.2182 61.4567 60.2182 61.4567C60.2182 61.4567 62.7893 61.9546 65.0936 61.396C65.3119 61.3474 65.5302 61.2745 65.7363 61.2016C68.1619 60.3515 92.1992 51.425 92.1992 51.425C92.1992 51.425 92.7328 51.2063 92.7813 51.0363" fill="white"/>
<path d="M92.7692 51.0485L92.7449 56.1736C92.6843 56.3558 92.1628 56.5866 92.1628 56.5866C92.1628 56.5866 68.1498 65.926 65.7242 66.8248C65.5302 66.8976 65.3361 66.9583 65.1421 67.0069C62.8257 67.6263 60.2061 67.0919 60.2061 67.0919C60.2061 67.0919 59.7695 67.0191 59.0176 66.8733C53.6207 65.8774 31.633 61.8453 30.2868 61.6146C29.074 61.4081 28.88 61.0559 28.8557 60.9102V60.8494L28.6738 55.5785C28.6981 55.7121 28.9043 56.04 30.1049 56.2344C31.4511 56.453 53.4266 60.2786 58.9569 61.2381C59.7573 61.3717 60.2182 61.4567 60.2182 61.4567C60.2182 61.4567 62.7893 61.9546 65.0936 61.396C65.3119 61.3474 65.5302 61.2745 65.7363 61.2016C68.1619 60.3515 92.1992 51.425 92.1992 51.425C92.1992 51.425 92.7328 51.2063 92.7813 51.0363" stroke="#D8DDCC" stroke-width="2" stroke-linejoin="round"/>
<path d="M92.7342 56.1616L92.71 61.2867C92.6493 61.4689 92.1278 61.7118 92.1278 61.7118C92.1278 61.7118 68.1391 71.4763 65.7135 72.4237C65.5437 72.4844 65.3739 72.5451 65.192 72.5937C62.8635 73.2738 60.1833 72.703 60.1833 72.703C60.1833 72.703 59.783 72.618 59.0554 72.4844C53.7919 71.4642 31.7921 67.2135 30.4338 66.9706C29.2331 66.752 29.027 66.3876 29.0027 66.2419V66.1811L28.8208 60.9102C28.8451 61.0438 29.027 61.396 30.2519 61.6146C31.6102 61.8575 53.5857 65.8897 58.9826 66.8734C59.7467 67.0191 60.1711 67.092 60.1711 67.092C60.1711 67.092 62.8029 67.6264 65.1071 67.007C65.3012 66.9584 65.4952 66.8977 65.6893 66.8248C68.1148 65.9261 92.1278 56.5866 92.1278 56.5866C92.1278 56.5866 92.6615 56.3559 92.71 56.1737" fill="white"/>
<path d="M92.7342 56.1616L92.71 61.2867C92.6493 61.4689 92.1278 61.7118 92.1278 61.7118C92.1278 61.7118 68.1391 71.4763 65.7135 72.4236C65.5437 72.4844 65.3739 72.5451 65.192 72.5937C62.8635 73.2738 60.1833 72.703 60.1833 72.703C60.1833 72.703 59.783 72.618 59.0554 72.4844C53.7919 71.4642 31.7921 67.2135 30.4338 66.9706C29.2331 66.752 29.027 66.3876 29.0027 66.2419V66.1811L28.8208 60.9102C28.8451 61.0438 29.027 61.396 30.2519 61.6146C31.6102 61.8575 53.5857 65.8897 58.9826 66.8734C59.7467 67.0191 60.1711 67.092 60.1711 67.092C60.1711 67.092 62.8029 67.6264 65.1071 67.007C65.3012 66.9584 65.4952 66.8977 65.6893 66.8248C68.1148 65.9261 92.1278 56.5866 92.1278 56.5866C92.1278 56.5866 92.6615 56.3559 92.71 56.1737" stroke="#D8DDCC" stroke-width="2" stroke-linejoin="round"/>
<path d="M92.7074 61.2867L92.6831 66.4119C92.6225 66.6062 92.101 66.8612 92.101 66.8612C92.101 66.8612 68.1364 77.0508 65.7109 78.0346C65.5654 78.0953 65.4077 78.1439 65.2622 78.1925C62.9215 78.9333 60.1927 78.3261 60.1927 78.3261C60.1927 78.3261 59.8047 78.2532 59.1255 78.1074C53.9955 77.063 31.9835 72.6058 30.6131 72.3386C29.4124 72.1078 29.2184 71.7313 29.1941 71.5856L29.0122 66.2418C29.0365 66.3876 29.2305 66.7519 30.4433 66.9705C31.8016 67.2134 53.8014 71.4642 59.0649 72.4843C59.7804 72.6179 60.1927 72.7029 60.1927 72.7029C60.1927 72.7029 62.873 73.2738 65.1894 72.5936C65.3592 72.5451 65.5411 72.4843 65.7109 72.4236C68.1364 71.4884 92.1252 61.7118 92.1252 61.7118C92.1252 61.7118 92.6588 61.4689 92.7074 61.2867Z" fill="white" stroke="#D8DDCC" stroke-width="2" stroke-linejoin="round"/>
<path d="M92.6853 66.4119L92.661 71.5371C92.6004 71.7436 92.0789 71.9986 92.0789 71.9986C92.0789 71.9986 68.1386 82.6133 65.7131 83.6456C65.5796 83.6942 65.4584 83.7428 65.325 83.7914C62.9722 84.5929 60.1949 83.9614 60.1949 83.9614C60.1949 83.9614 59.8432 83.8885 59.2004 83.7428C54.2159 82.6862 32.1797 77.9982 30.8093 77.7189C29.5965 77.476 29.4025 77.0873 29.3782 76.9173V76.8444L29.1963 71.5735C29.2205 71.7314 29.4267 72.0958 30.6274 72.3265C31.9978 72.5937 54.0097 77.0509 59.1398 78.0954C59.8189 78.229 60.1949 78.314 60.1949 78.314C60.1949 78.314 62.9237 78.9091 65.2643 78.1804C65.422 78.1318 65.5675 78.0711 65.7131 78.0225C68.1386 77.0388 92.1031 66.8491 92.1031 66.8491C92.1031 66.8491 92.6367 66.5941 92.6853 66.3998" fill="white"/>
<path d="M92.6853 66.4119L92.661 71.5371C92.6004 71.7436 92.0789 71.9986 92.0789 71.9986C92.0789 71.9986 68.1386 82.6133 65.7131 83.6456C65.5796 83.6942 65.4584 83.7428 65.325 83.7914C62.9722 84.5929 60.1949 83.9614 60.1949 83.9614C60.1949 83.9614 59.8432 83.8885 59.2004 83.7428C54.2159 82.6862 32.1797 77.9982 30.8093 77.7189C29.5965 77.476 29.4025 77.0873 29.3782 76.9173V76.8444L29.1963 71.5735C29.2205 71.7314 29.4267 72.0958 30.6274 72.3265C31.9978 72.5937 54.0097 77.0509 59.1398 78.0954C59.8189 78.229 60.1949 78.314 60.1949 78.314C60.1949 78.314 62.9237 78.9091 65.2643 78.1804C65.422 78.1318 65.5675 78.0711 65.7131 78.0225C68.1386 77.0388 92.1031 66.8491 92.1031 66.8491C92.1031 66.8491 92.6367 66.5941 92.6853 66.3998" stroke="#D8DDCC" stroke-width="2" stroke-linejoin="round"/>
<path d="M92.6602 71.537L92.6359 76.6622C92.5753 76.8687 92.0538 77.148 92.0538 77.148C92.0538 77.148 68.1378 88.1878 65.7122 89.2565C65.6031 89.3051 65.506 89.3416 65.3848 89.3901C63.0198 90.2646 60.1819 89.5844 60.1819 89.5844C60.1819 89.5844 59.8424 89.5116 59.2481 89.378C54.4212 88.2971 32.3487 83.3905 30.9782 83.099C29.7776 82.8561 29.5835 82.4432 29.5472 82.2732V82.1882L29.3652 76.9173C29.3895 77.0751 29.5835 77.4759 30.7963 77.7188C32.1668 77.9982 54.2029 82.6861 59.1875 83.7427C59.8302 83.8763 60.1819 83.9492 60.1819 83.9492C60.1819 83.9492 62.9592 84.5929 65.312 83.7792C65.4454 83.7306 65.5788 83.682 65.7001 83.6334C68.1256 82.6132 92.0659 71.9864 92.0659 71.9864C92.0659 71.9864 92.5874 71.7192 92.6602 71.5249" fill="white"/>
<path d="M92.6602 71.537L92.6359 76.6622C92.5753 76.8687 92.0538 77.148 92.0538 77.148C92.0538 77.148 68.1378 88.1878 65.7122 89.2565C65.6031 89.3051 65.506 89.3416 65.3848 89.3901C63.0198 90.2646 60.1819 89.5844 60.1819 89.5844C60.1819 89.5844 59.8424 89.5116 59.2481 89.378C54.4212 88.2971 32.3487 83.3905 30.9782 83.099C29.7776 82.8561 29.5835 82.4432 29.5472 82.2732V82.1882L29.3652 76.9173C29.3895 77.0751 29.5835 77.4759 30.7963 77.7188C32.1668 77.9982 54.2029 82.6861 59.1875 83.7427C59.8302 83.8763 60.1819 83.9492 60.1819 83.9492C60.1819 83.9492 62.9592 84.5929 65.312 83.7792C65.4454 83.7306 65.5788 83.682 65.7001 83.6334C68.1256 82.6132 92.0659 71.9864 92.0659 71.9864C92.0659 71.9864 92.5874 71.7192 92.6602 71.5249" stroke="#D8DDCC" stroke-width="2" stroke-linejoin="round"/>
<path d="M92.6363 76.6622L92.612 81.7874C92.5514 82.006 92.0299 82.2853 92.0299 82.2853C92.0299 82.2853 68.1503 93.7623 65.7126 94.8675C65.6277 94.9039 65.5428 94.9404 65.4579 94.9768C63.0809 95.9241 60.1944 95.2076 60.1944 95.2076C60.1944 95.2076 59.8791 95.1347 59.3334 95.0011C54.6642 93.9081 32.5552 88.7707 31.1726 88.4671C29.9841 88.2121 29.7779 87.787 29.7537 87.617V87.532L29.5718 82.2732C29.596 82.4432 29.8022 82.844 31.0029 83.0991C32.3854 83.3905 54.4459 88.2971 59.2727 89.378C59.867 89.5116 60.2066 89.5845 60.2066 89.5845C60.2066 89.5845 63.0323 90.2646 65.4094 89.3901C65.5185 89.3537 65.6277 89.3051 65.7368 89.2565C68.1624 88.1878 92.0784 77.148 92.0784 77.148C92.0784 77.148 92.612 76.8687 92.6605 76.6622" fill="white"/>
<path d="M92.6363 76.6622L92.612 81.7874C92.5514 82.006 92.0299 82.2853 92.0299 82.2853C92.0299 82.2853 68.1503 93.7623 65.7126 94.8675C65.6277 94.9039 65.5428 94.9404 65.4579 94.9768C63.0809 95.9241 60.1944 95.2076 60.1944 95.2076C60.1944 95.2076 59.8791 95.1347 59.3334 95.0011C54.6642 93.9081 32.5552 88.7707 31.1726 88.4671C29.9841 88.2121 29.7779 87.787 29.7537 87.617V87.532L29.5718 82.2732C29.596 82.4432 29.8022 82.844 31.0029 83.0991C32.3854 83.3905 54.4459 88.2971 59.2727 89.378C59.867 89.5116 60.2066 89.5845 60.2066 89.5845C60.2066 89.5845 63.0323 90.2646 65.4094 89.3901C65.5185 89.3537 65.6277 89.3051 65.7368 89.2565C68.1624 88.1878 92.0784 77.148 92.0784 77.148C92.0784 77.148 92.612 76.8687 92.6605 76.6622" stroke="#D8DDCC" stroke-width="2" stroke-linejoin="round"/>
<path d="M92.6108 81.7752L92.5865 86.9004C92.5259 87.1311 91.9922 87.4226 91.9922 87.4226C91.9922 87.4226 68.1369 99.3125 65.7113 100.466C65.6507 100.503 65.5779 100.527 65.5173 100.551C63.1281 101.571 60.1932 100.818 60.1932 100.818C60.1932 100.818 59.9142 100.746 59.3927 100.624C54.8812 99.5311 32.7359 94.1509 31.3533 93.8351C30.1648 93.568 29.9586 93.1307 29.9344 92.9486V92.8636L29.7524 87.6169C29.7888 87.7991 29.9829 88.212 31.1835 88.4671C32.5661 88.7707 54.675 93.908 59.3442 95.0011C59.9021 95.1347 60.2053 95.2075 60.2053 95.2075C60.2053 95.2075 63.0917 95.9241 65.4688 94.9768C65.5537 94.9403 65.6386 94.9039 65.7235 94.8675C68.149 93.7623 92.0407 82.2853 92.0407 82.2853C92.0407 82.2853 92.5744 82.006 92.6229 81.7874" fill="white"/>
<path d="M92.6108 81.7752L92.5865 86.9004C92.5259 87.1311 91.9922 87.4226 91.9922 87.4226C91.9922 87.4226 68.1369 99.3125 65.7113 100.466C65.6507 100.503 65.5779 100.527 65.5173 100.551C63.1281 101.571 60.1932 100.818 60.1932 100.818C60.1932 100.818 59.9142 100.746 59.3928 100.624C54.8812 99.5311 32.7359 94.1509 31.3533 93.8351C30.1648 93.568 29.9586 93.1307 29.9344 92.9486V92.8636L29.7524 87.6169C29.7888 87.7991 29.9829 88.212 31.1835 88.4671C32.5661 88.7707 54.675 93.908 59.3442 95.0011C59.9021 95.1347 60.2053 95.2075 60.2053 95.2075C60.2053 95.2075 63.0917 95.9241 65.4688 94.9768C65.5537 94.9403 65.6386 94.9039 65.7235 94.8675C68.149 93.7623 92.0407 82.2853 92.0407 82.2853C92.0407 82.2853 92.5744 82.006 92.6229 81.7874" stroke="#D8DDCC" stroke-width="2" stroke-linejoin="round"/>
<path d="M92.5875 86.9126L92.5633 92.0378C92.5026 92.2685 91.9811 92.5843 91.9811 92.5843C91.9811 92.5843 68.15 104.911 65.7245 106.102C65.676 106.126 65.6396 106.138 65.5911 106.162C63.1898 107.268 60.1942 106.466 60.1942 106.466C60.1942 106.466 59.9395 106.405 59.4544 106.284C55.1127 105.179 32.9188 99.5555 31.5241 99.2397C30.3356 98.9604 30.1294 98.511 30.093 98.3167V98.2317L29.9111 92.9851C29.9354 93.1672 30.1416 93.6045 31.3301 93.8716C32.7127 94.1874 54.858 99.5676 59.3695 100.661C59.8789 100.782 60.17 100.855 60.17 100.855C60.17 100.855 63.1049 101.62 65.4941 100.588C65.5547 100.564 65.6275 100.527 65.6881 100.503C68.1137 99.349 91.969 87.4591 91.969 87.4591C91.969 87.4591 92.4905 87.1676 92.5633 86.9369" fill="white"/>
<path d="M92.5875 86.9126L92.5633 92.0378C92.5026 92.2685 91.9811 92.5843 91.9811 92.5843C91.9811 92.5843 68.15 104.911 65.7245 106.102C65.676 106.126 65.6396 106.138 65.5911 106.162C63.1898 107.268 60.1942 106.466 60.1942 106.466C60.1942 106.466 59.9395 106.405 59.4544 106.284C55.1127 105.179 32.9188 99.5555 31.5241 99.2397C30.3356 98.9604 30.1294 98.511 30.093 98.3167V98.2317L29.9111 92.9851C29.9354 93.1672 30.1416 93.6045 31.3301 93.8716C32.7127 94.1874 54.858 99.5676 59.3695 100.661C59.8789 100.782 60.17 100.855 60.17 100.855C60.17 100.855 63.1049 101.62 65.4941 100.588C65.5547 100.564 65.6275 100.527 65.6881 100.503C68.1137 99.349 91.969 87.4591 91.969 87.4591C91.969 87.4591 92.4905 87.1676 92.5633 86.9369" stroke="#D8DDCC" stroke-width="2" stroke-linejoin="round"/>
<path d="M92.5622 92.0256L92.5379 97.1507C92.4773 97.3936 91.9558 97.7094 91.9558 97.7094C91.9558 97.7094 68.149 110.462 65.7234 111.688C65.6991 111.688 65.6749 111.713 65.6628 111.725C63.2493 112.915 60.2052 112.065 60.2052 112.065C60.2052 112.065 59.9627 112.004 59.5382 111.895C55.3784 110.79 33.1239 104.924 31.7171 104.583C30.5407 104.292 30.3224 103.843 30.2981 103.636L30.1162 98.2924C30.1405 98.4867 30.3466 98.9361 31.5473 99.2154C32.942 99.5433 55.1358 105.166 59.4776 106.259C59.9506 106.381 60.2174 106.442 60.2174 106.442C60.2174 106.442 63.2008 107.243 65.6142 106.138C65.6628 106.126 65.6991 106.102 65.7477 106.077C68.1732 104.887 92.0043 92.56 92.0043 92.56C92.0043 92.56 92.5379 92.2563 92.5864 92.0134" fill="#AE603B"/>
<path d="M92.5622 92.0256L92.5379 97.1507C92.4773 97.3936 91.9558 97.7094 91.9558 97.7094C91.9558 97.7094 68.149 110.462 65.7234 111.688C65.6991 111.688 65.6749 111.713 65.6628 111.725C63.2493 112.915 60.2052 112.065 60.2052 112.065C60.2052 112.065 59.9627 112.004 59.5382 111.895C55.3784 110.79 33.1239 104.924 31.7171 104.583C30.5407 104.292 30.3224 103.843 30.2981 103.636L30.1162 98.2924C30.1405 98.4867 30.3466 98.9361 31.5473 99.2154C32.942 99.5433 55.1358 105.166 59.4776 106.259C59.9506 106.381 60.2174 106.442 60.2174 106.442C60.2174 106.442 63.2008 107.243 65.6142 106.138C65.6628 106.126 65.6991 106.102 65.7477 106.077C68.1732 104.887 92.0043 92.56 92.0043 92.56C92.0043 92.56 92.5379 92.2563 92.5864 92.0134" stroke="#D8DDCC" stroke-width="2" stroke-linejoin="round"/>
<path d="M92.5395 97.1508L92.5153 102.276C92.4546 102.531 91.9331 102.859 91.9331 102.859C91.9331 102.859 68.1506 116.036 65.725 117.311C63.2994 118.587 60.2068 117.7 60.2068 117.7C60.2068 117.7 59.9885 117.639 59.6005 117.53C55.6225 116.437 33.3074 110.304 31.9006 109.964C30.3482 109.575 30.4695 108.883 30.4695 108.883L30.2876 103.648C30.324 103.855 30.5423 104.304 31.7065 104.596C33.1134 104.936 55.3557 110.814 59.5277 111.907C59.9643 112.016 60.1947 112.077 60.1947 112.077C60.1947 112.077 63.2388 112.927 65.6522 111.737C65.6765 111.737 65.7007 111.713 65.7129 111.7C68.1384 110.462 91.9453 97.7216 91.9453 97.7216C91.9453 97.7216 92.4668 97.4058 92.5395 97.1629" fill="white"/>
<path d="M92.5395 97.1508L92.5153 102.276C92.4546 102.531 91.9331 102.859 91.9331 102.859C91.9331 102.859 68.1505 116.036 65.725 117.311C63.2994 118.587 60.2068 117.7 60.2068 117.7C60.2068 117.7 59.9885 117.639 59.6005 117.53C55.6225 116.437 33.3074 110.304 31.9006 109.964C30.3482 109.575 30.4695 108.883 30.4695 108.883L30.2876 103.648C30.324 103.855 30.5423 104.304 31.7065 104.596C33.1134 104.936 55.3557 110.814 59.5277 111.907C59.9643 112.016 60.1947 112.077 60.1947 112.077C60.1947 112.077 63.2388 112.927 65.6522 111.737C65.6765 111.737 65.7007 111.713 65.7129 111.7C68.1384 110.462 91.9453 97.7216 91.9453 97.7216C91.9453 97.7216 92.4668 97.4058 92.5395 97.1629" stroke="#D8DDCC" stroke-width="2" stroke-linejoin="round"/>
<path d="M92.4786 102.13L92.9637 4.70338M59.5395 117.372L58.3025 10.5815M65.6641 117.153L64.427 10.788M27.0007 7.5453L30.4207 108.725C30.4207 108.725 30.2994 109.417 31.8518 109.806C33.4041 110.194 60.158 117.542 60.158 117.542C60.158 117.542 63.2506 118.429 65.6762 117.153C68.1017 115.878 91.8843 102.713 91.8843 102.713C91.8843 102.713 92.418 102.385 92.4665 102.13M27.1705 12.7433C27.1705 12.7433 27.0492 13.0227 28.6015 13.1806C30.1539 13.3384 60.158 16.399 60.158 16.399C60.158 16.399 63.2506 16.7512 65.6762 16.2411C68.1017 15.731 92.3573 10.2172 92.3573 10.2172C92.3573 10.2172 92.8909 10.0836 92.9395 9.98643M27.3524 18.075C27.3524 18.075 27.2311 18.3786 28.7835 18.5486C30.3358 18.7187 60.158 22.0221 60.158 22.0221C60.158 22.0221 63.2506 22.4107 65.6762 21.852C68.1017 21.2934 92.3331 15.3666 92.3331 15.3666C92.3331 15.3666 92.8667 15.2209 92.9152 15.1116M27.5343 23.4066C27.5343 23.4066 27.413 23.7345 28.9654 23.9167C30.5177 24.0989 60.158 27.6452 60.158 27.6452C60.158 27.6452 63.2506 28.0581 65.6762 27.463C68.1017 26.8679 92.2967 20.504 92.2967 20.504C92.2967 20.504 92.8303 20.3461 92.8788 20.2368M27.7162 28.7382C27.7162 28.7382 27.5949 29.0904 29.1473 29.2848C30.6996 29.4791 60.158 33.2562 60.158 33.2562C60.158 33.2562 63.2506 33.7055 65.6762 33.0618C68.1017 32.4182 92.2724 25.6413 92.2724 25.6413C92.2724 25.6413 92.806 25.4712 92.8546 25.3498M27.886 34.0699C27.886 34.0699 27.7647 34.4464 29.3171 34.6528C30.8694 34.8593 60.1459 38.8793 60.1459 38.8793C60.1459 38.8793 63.2385 39.3529 65.6641 38.6728C68.0896 37.9927 92.236 30.7786 92.236 30.7786C92.236 30.7786 92.7697 30.6086 92.8182 30.4628M28.0679 39.4015C28.0679 39.4015 27.9466 39.8023 29.499 40.0209C31.0514 40.2395 60.158 44.4902 60.158 44.4902C60.158 44.4902 63.2506 45.0003 65.6762 44.2716C68.1017 43.5429 92.2239 35.9159 92.2239 35.9159C92.2239 35.9159 92.7575 35.7337 92.806 35.588M28.2498 44.7331C28.2498 44.7331 28.1286 45.1582 29.6809 45.389C31.2333 45.6197 60.158 50.1134 60.158 50.1134C60.158 50.1134 63.2506 50.6477 65.6762 49.8826C68.1017 49.1175 92.1997 41.0532 92.1997 41.0532C92.1997 41.0532 92.7333 40.8589 92.7818 40.701M28.4317 50.0648C28.4317 50.0648 28.3105 50.502 29.8628 50.757C31.4152 50.9999 60.158 55.7365 60.158 55.7365C60.158 55.7365 63.2506 56.2951 65.6762 55.4936C68.1017 54.6799 92.1754 46.2027 92.1754 46.2027C92.1754 46.2027 92.709 45.9962 92.7575 45.8383M28.6137 55.3964C28.6137 55.3964 28.4924 55.8579 30.0447 56.1251C31.5971 56.3801 60.158 61.3474 60.158 61.3474C60.158 61.3474 63.2506 61.9425 65.6762 61.0924C68.1017 60.2422 92.1511 51.3278 92.1511 51.3278C92.1511 51.3278 92.6848 51.1092 92.7333 50.9392M28.7956 60.7402C28.7956 60.7402 28.6743 61.226 30.2267 61.4932C31.779 61.7604 60.158 66.9705 60.158 66.9705C60.158 66.9705 63.2506 67.5899 65.6762 66.7034C68.1017 65.8046 92.1269 56.4773 92.1269 56.4773C92.1269 56.4773 92.6484 56.2466 92.709 56.0644M28.9775 66.0718C28.9775 66.0718 28.8562 66.5819 30.4086 66.8612C31.9609 67.1406 60.158 72.5937 60.158 72.5937C60.158 72.5937 63.2506 73.2495 65.6762 72.3143C68.1017 71.3792 92.0905 61.6146 92.0905 61.6146C92.0905 61.6146 92.6241 61.3717 92.6848 61.1895M29.1594 71.4035C29.1594 71.4035 29.0381 71.9378 30.5905 72.2293C32.1429 72.5208 60.158 78.2046 60.158 78.2046C60.158 78.2046 63.2506 78.8847 65.6762 77.9131C68.1017 76.9294 92.0663 66.7519 92.0663 66.7519C92.0663 66.7519 92.5999 66.4969 92.6484 66.3026M29.3292 76.7351C29.3292 76.7351 29.2079 77.2938 30.7603 77.5974C32.3126 77.9131 60.158 83.8277 60.158 83.8277C60.158 83.8277 63.2506 84.5443 65.6762 83.5241C68.1017 82.5039 92.042 71.8892 92.042 71.8892C92.042 71.8892 92.5756 71.6221 92.6241 71.4277M29.5111 82.0667C29.5111 82.0667 29.3898 82.6497 30.9422 82.9654C32.4946 83.2812 60.158 89.4508 60.158 89.4508C60.158 89.4508 63.2506 90.1917 65.6762 89.1229C68.1017 88.0542 92.0177 77.0266 92.0177 77.0266C92.0177 77.0266 92.5514 76.7472 92.5999 76.5408M29.693 87.3984C29.693 87.3984 29.5718 88.0056 31.1241 88.3335C32.6643 88.6736 60.158 95.0618 60.158 95.0618C60.158 95.0618 63.2506 95.8391 65.6762 94.7218C68.1017 93.6166 91.9935 82.1517 91.9935 82.1517C91.9935 82.1517 92.5271 81.8724 92.5756 81.6538M29.875 92.73C29.875 92.73 29.7537 93.3615 31.306 93.7016C32.8584 94.0538 60.158 100.685 60.158 100.685C60.158 100.685 63.2506 101.486 65.6762 100.333C68.1017 99.1789 91.9692 87.3012 91.9692 87.3012C91.9692 87.3012 92.5029 87.0097 92.5514 86.779M30.0569 98.0616C30.0569 98.0616 29.9356 98.7053 31.488 99.0697C33.0282 99.434 60.158 106.296 60.158 106.296C60.158 106.296 63.2506 107.122 65.6762 105.932C68.1017 104.741 91.945 92.4264 91.945 92.4264C91.945 92.4264 92.4786 92.1227 92.5271 91.8798M30.2388 103.393C30.2388 103.393 30.1175 104.061 31.6699 104.438C33.2222 104.814 60.158 111.919 60.158 111.919C60.158 111.919 63.2506 112.781 65.6762 111.543C68.1017 110.304 91.9207 97.5637 91.9207 97.5637C91.9207 97.5637 92.4543 97.2479 92.5029 97.005M92.3816 5.07987C91.4962 5.27419 68.1017 10.1565 65.6762 10.6301C63.2506 11.1038 60.158 10.7759 60.158 10.7759C60.158 10.7759 29.2322 7.84892 27.6798 7.70318C27.1705 7.6546 27.0128 7.59388 27.0007 7.53315C26.9764 7.4117 27.6192 7.29025 27.6192 7.29025L56.3257 2.46871C59.1272 1.99506 61.9772 1.88575 64.803 2.11651C64.803 2.11651 91.6054 4.38761 92.4058 4.44834C92.7818 4.48477 92.9516 4.58193 92.9637 4.69123C92.9637 4.82483 92.7575 4.98271 92.3816 5.06773V5.07987Z" stroke="#D8DDCC" stroke-width="2" stroke-miterlimit="10" stroke-linejoin="round"/>
</svg>
